<svg width="16" height="16" viewBox="0 0 16 16" fill="none" xmlns="http://www.w3.org/2000/svg">
<path d="M13.8079 2.67344H13.4179V2.06184C13.4179 1.49746 12.9701 1.02344 12.4054 1.02344H11.4323C10.8679 1.02344 10.4179 1.49746 10.4179 2.06184V2.67344H5.54296V2.06184C5.54296 1.49746 5.09296 1.02344 4.52859 1.02344H3.55546C2.99085 1.02344 2.54296 1.49746 2.54296 2.06184V2.67344H2.15297C1.22871 2.6766 0.481055 3.42648 0.480469 4.35063V13.2297C0.481992 14.1522 1.23047 14.899 2.15297 14.8984H13.8079C14.7304 14.899 15.479 14.1522 15.4804 13.2297V4.35063C15.4799 3.42648 14.7322 2.6766 13.8079 2.67344ZM11.1679 2.06184C11.1679 1.9109 11.2815 1.77344 11.4323 1.77344H12.4054C12.5564 1.77344 12.6679 1.9109 12.6679 2.06184V4.32344H11.1679V2.06184ZM3.29296 2.06184C3.29296 1.9109 3.40441 1.77344 3.55546 1.77344H4.52859C4.67941 1.77344 4.79296 1.9109 4.79296 2.06184V4.32344H3.29296V2.06184ZM2.15297 3.42344H2.54296V4.69316C2.53722 4.89742 2.69824 5.0677 2.90261 5.07344H5.17733C5.38253 5.07016 5.54636 4.90094 5.54296 4.69574V3.42344H10.4179V4.69316C10.4131 4.89836 10.5757 5.06875 10.781 5.07344H13.0542C13.2586 5.06992 13.4213 4.90152 13.4179 4.69727C13.4179 4.69586 13.4179 4.69445 13.4179 4.69316V3.42344H13.8079C14.3181 3.42613 14.7303 3.84039 14.7304 4.35063V5.97344H1.23047V4.35063C1.23058 3.84039 1.64285 3.42613 2.15297 3.42344ZM13.8079 14.1484H2.15297C1.64461 14.1496 1.23152 13.7383 1.23047 13.2299V6.72344H14.7304V13.2297C14.7294 13.738 14.3167 14.1494 13.8082 14.1484H13.8079Z" fill="#713E8B"/>
</svg>
