<svg width="13" height="13" viewBox="0 0 13 13" fill="none" xmlns="http://www.w3.org/2000/svg">
<g clip-path="url(#clip0_433_27200)">
<path d="M11.1042 0H1.89584C0.850408 0 0 0.850408 0 1.89584V8.39584C0 9.44125 0.850408 10.2917 1.89584 10.2917H8.28372L10.9124 12.9209C10.9644 12.9724 11.0338 13 11.1042 13C11.1388 13 11.1741 12.993 11.2077 12.9794C11.3089 12.9377 11.375 12.8386 11.375 12.7292V10.2727C12.2926 10.1406 13 9.34918 13 8.39584V1.89584C13 0.850408 12.1496 0 11.1042 0ZM12.4583 8.39584C12.4583 9.14281 11.8506 9.75 11.1042 9.75C10.9547 9.75 10.8333 9.87134 10.8333 10.0208V12.0754L8.58759 9.82909C8.53668 9.77872 8.46787 9.75 8.39584 9.75H1.89584C1.14943 9.75 0.541684 9.14278 0.541684 8.39584V1.89584C0.541684 1.14887 1.14943 0.541684 1.89584 0.541684H11.1042C11.8506 0.541684 12.4583 1.1489 12.4583 1.89584V8.39584Z" fill="#713E8B"/>
</g>
<defs>
<clipPath id="clip0_433_27200">
<rect width="13" height="13" fill="white"/>
</clipPath>
</defs>
</svg>
