<svg width="35" height="35" viewBox="0 0 35 35" fill="none" xmlns="http://www.w3.org/2000/svg">
<circle cx="17.5" cy="17.5" r="17" fill="#F8F8F8" stroke="#F2F2F2"/>
<g clip-path="url(#clip0_336_293)">
<path d="M17.5002 17.5166C14.0743 17.5166 11.2871 20.3039 11.2871 23.7297C11.2871 23.8788 11.4081 23.9998 11.5573 23.9998C11.7064 23.9998 11.8274 23.8788 11.8274 23.7297C11.8274 20.6015 14.3721 18.0569 17.5002 18.0569C20.6284 18.0569 23.1731 20.6015 23.1731 23.7297C23.1731 23.8788 23.2941 23.9998 23.4432 23.9998C23.5923 23.9998 23.7134 23.8788 23.7134 23.7297C23.7133 20.3033 20.9261 17.5166 17.5002 17.5166Z" fill="#713E8B"/>
<path d="M17.4998 11C15.8617 11 14.5283 12.3328 14.5283 13.9715C14.5283 15.6101 15.8617 16.943 17.4998 16.943C19.1379 16.943 20.4713 15.6101 20.4713 13.9715C20.4713 12.3328 19.1379 11 17.4998 11ZM17.4998 16.4027C16.1594 16.4027 15.0686 15.3119 15.0686 13.9715C15.0686 12.6311 16.1594 11.5403 17.4998 11.5403C18.8402 11.5403 19.931 12.6311 19.931 13.9715C19.931 15.3119 18.8402 16.4027 17.4998 16.4027Z" fill="#713E8B"/>
</g>
<defs>
<clipPath id="clip0_336_293">
<rect width="13" height="13" fill="white" transform="translate(11 11)"/>
</clipPath>
</defs>
</svg>
