<svg width="41" height="40" viewBox="0 0 41 40" fill="none" xmlns="http://www.w3.org/2000/svg">
<circle cx="20.8821" cy="20" r="20" fill="#F2F2F2"/>
<path d="M25.5055 10.0042L23.107 10C20.4123 10 18.6709 11.9722 18.6709 15.0246V17.3413H16.2592C16.0508 17.3413 15.8821 17.5278 15.8821 17.7578V21.1145C15.8821 21.3445 16.051 21.5308 16.2592 21.5308H18.6709V30.0006C18.6709 30.2306 18.8396 30.4169 19.048 30.4169H22.1945C22.4029 30.4169 22.5716 30.2304 22.5716 30.0006V21.5308H25.3914C25.5998 21.5308 25.7686 21.3445 25.7686 21.1145L25.7697 17.7578C25.7697 17.6474 25.7299 17.5416 25.6593 17.4635C25.5886 17.3853 25.4924 17.3413 25.3924 17.3413H22.5716V15.3774C22.5716 14.4335 22.7754 13.9543 23.8894 13.9543L25.5051 13.9537C25.7133 13.9537 25.8821 13.7672 25.8821 13.5374V10.4206C25.8821 10.191 25.7135 10.0047 25.5055 10.0042Z" fill="url(#paint0_linear_142_226)"/>
<defs>
<linearGradient id="paint0_linear_142_226" x1="20.1138" y1="24.0276" x2="33.885" y2="11.9036" gradientUnits="userSpaceOnUse">
<stop stop-color="#713E8B"/>
<stop offset="0.54" stop-color="#D4242F"/>
<stop offset="1" stop-color="#713E8B"/>
</linearGradient>
</defs>
</svg>
