<svg width="41" height="40" viewBox="0 0 41 40" fill="none" xmlns="http://www.w3.org/2000/svg">
<circle cx="20.8821" cy="20" r="20" fill="#F2F2F2"/>
<path d="M30.8821 13.9622C30.146 14.2952 29.3561 14.521 28.5263 14.6218C29.3736 14.1038 30.0222 13.2822 30.3297 12.3062C29.5348 12.7859 28.6575 13.1342 27.7226 13.323C26.974 12.5078 25.9092 12 24.7282 12C22.4624 12 20.6252 13.8755 20.6252 16.1873C20.6252 16.5152 20.6614 16.8354 20.7314 17.1416C17.3221 16.9668 14.2989 15.2993 12.2755 12.7655C11.9219 13.383 11.7206 14.1025 11.7206 14.8706C11.7206 16.3238 12.4455 17.606 13.5453 18.3562C12.8729 18.3332 12.2405 18.1444 11.6869 17.8305V17.8828C11.6869 19.9114 13.1017 21.6044 14.9775 21.9897C14.6339 22.0842 14.2714 22.1365 13.8965 22.1365C13.6316 22.1365 13.3754 22.1097 13.1241 22.0586C13.6465 23.7236 15.1613 24.9344 16.9559 24.9675C15.5524 26.0903 13.7828 26.7575 11.8606 26.7575C11.5295 26.7575 11.2033 26.7371 10.8821 26.7001C12.698 27.8905 14.8539 28.5845 17.1709 28.5845C24.7182 28.5845 28.8437 22.2028 28.8437 16.6683L28.83 16.1261C29.6361 15.5391 30.3334 14.8017 30.8821 13.9622Z" fill="url(#paint0_linear_142_230)"/>
<defs>
<linearGradient id="paint0_linear_142_230" x1="19.3456" y1="23.3945" x2="27.9247" y2="4.79802" gradientUnits="userSpaceOnUse">
<stop stop-color="#713E8B"/>
<stop offset="0.54" stop-color="#D4242F"/>
<stop offset="1" stop-color="#713E8B"/>
</linearGradient>
</defs>
</svg>
