<svg width="60" height="60" viewBox="0 0 60 60" fill="none" xmlns="http://www.w3.org/2000/svg">
<circle cx="30" cy="30" r="29.5" fill="url(#paint0_linear_241_13809)" stroke="#713E8B"/>
<path d="M37.3304 23.6667C37.3311 23.5787 37.2971 23.494 37.2357 23.431L33.9024 20.0977C33.8396 20.0358 33.7547 20.0017 33.6667 20.003V20H23.6667C23.1144 20 22.6667 20.4477 22.6667 21V39C22.6667 39.5523 23.1144 40 23.6667 40H36.3334C36.8856 40 37.3334 39.5523 37.3334 39V23.6667H37.3304ZM34 21.138L36.1954 23.3333H34.3334C34.1493 23.3333 34 23.1841 34 23V21.138ZM36.6667 39C36.6667 39.1841 36.5174 39.3333 36.3334 39.3333H23.6667C23.4826 39.3333 23.3334 39.1841 23.3334 39V21C23.3334 20.8159 23.4826 20.6667 23.6667 20.6667H33.3334V23C33.3334 23.5523 33.7811 24 34.3334 24H36.6667V39Z" fill="white"/>
<path d="M26 29C25.4477 29 25 29.4477 25 30C25 30.5523 25.4477 31 26 31C26.5523 31 27 30.5523 27 30C27 29.4477 26.5523 29 26 29ZM26 30.3333C25.8159 30.3333 25.6667 30.1841 25.6667 30C25.6667 29.8159 25.8159 29.6667 26 29.6667C26.1841 29.6667 26.3333 29.8159 26.3333 30C26.3333 30.1841 26.1841 30.3333 26 30.3333Z" fill="white"/>
<path d="M35 29.668H28.3333V30.3346H35V29.668Z" fill="white"/>
<path d="M26 25.668C25.4477 25.668 25 26.1157 25 26.668C25 27.2203 25.4477 27.668 26 27.668C26.5523 27.668 27 27.2203 27 26.668C27 26.1157 26.5523 25.668 26 25.668ZM26 27.0013C25.8159 27.0013 25.6667 26.8521 25.6667 26.668C25.6667 26.4839 25.8159 26.3346 26 26.3346C26.1841 26.3346 26.3333 26.4839 26.3333 26.668C26.3333 26.8521 26.1841 27.0013 26 27.0013Z" fill="white"/>
<path d="M35 26.332H28.3333V26.9987H35V26.332Z" fill="white"/>
<path d="M26 32.332C25.4477 32.332 25 32.7797 25 33.332C25 33.8843 25.4477 34.332 26 34.332C26.5523 34.332 27 33.8843 27 33.332C27 32.7797 26.5523 32.332 26 32.332ZM26 33.6654C25.8159 33.6654 25.6667 33.5161 25.6667 33.332C25.6667 33.1479 25.8159 32.9987 26 32.9987C26.1841 32.9987 26.3333 33.1479 26.3333 33.332C26.3333 33.5161 26.1841 33.6654 26 33.6654Z" fill="white"/>
<path d="M35 33H28.3333V33.6667H35V33Z" fill="white"/>
<path d="M26 35.668C25.4477 35.668 25 36.1157 25 36.668C25 37.2203 25.4477 37.668 26 37.668C26.5523 37.668 27 37.2203 27 36.668C27 36.1157 26.5523 35.668 26 35.668ZM26 37.0013C25.8159 37.0013 25.6667 36.8521 25.6667 36.668C25.6667 36.4839 25.8159 36.3346 26 36.3346C26.1841 36.3346 26.3333 36.4839 26.3333 36.668C26.3333 36.8521 26.1841 37.0013 26 37.0013Z" fill="white"/>
<path d="M35 36.332H28.3333V36.9987H35V36.332Z" fill="white"/>
<defs>
<linearGradient id="paint0_linear_241_13809" x1="25.3904" y1="41.2235" x2="60.0566" y2="-21.0881" gradientUnits="userSpaceOnUse">
<stop stop-color="#713E8B"/>
<stop offset="0.54" stop-color="#D4242F"/>
<stop offset="1" stop-color="#713E8B"/>
</linearGradient>
</defs>
</svg>
