<svg width="60" height="60" viewBox="0 0 60 60" fill="none" xmlns="http://www.w3.org/2000/svg">
<circle cx="30" cy="30" r="29.5" fill="url(#paint0_linear_241_13811)" stroke="#713E8B"/>
<g clip-path="url(#clip0_241_13811)">
<path d="M39.736 20.0978C39.6056 19.9674 39.395 19.9674 39.2646 20.0978L38.0289 21.3335H30.2677L20.5107 31.1708C20.2887 31.3928 20.1663 31.6885 20.1663 32.0025C20.1663 32.3165 20.2887 32.6122 20.5107 32.8342L27.3329 39.6564C27.5619 39.8854 27.8622 40.0001 28.1633 40.0001C28.4656 40.0001 28.7679 39.8844 28.9996 39.6531L38.5003 29.8957V21.8048L39.736 20.5691C39.8663 20.4388 39.8663 20.2281 39.736 20.0978ZM37.8336 29.6251L28.5249 39.1851C28.3263 39.3837 28.0029 39.3837 27.8042 39.1851L20.982 32.3628C20.7833 32.1642 20.7833 31.8408 20.983 31.6411L30.5457 22.0001H37.3622L35.7512 23.6112C35.4875 23.4365 35.1725 23.3335 34.8335 23.3335C33.9144 23.3335 33.1668 24.0812 33.1668 25.0002C33.1668 25.9193 33.9144 26.667 34.8335 26.667C35.7525 26.667 36.5002 25.9193 36.5002 25.0002C36.5002 24.6612 36.3972 24.3462 36.2225 24.0826L37.8336 22.4715V29.6251ZM35.8335 25.0002C35.8335 25.5516 35.3848 26.0003 34.8335 26.0003C34.2821 26.0003 33.8334 25.5516 33.8334 25.0002C33.8334 24.4489 34.2821 24.0002 34.8335 24.0002C34.9875 24.0002 35.1315 24.0382 35.2618 24.1006L34.5978 24.7646C34.4675 24.8949 34.4675 25.1056 34.5978 25.2359C34.6628 25.3009 34.7481 25.3336 34.8335 25.3336C34.9188 25.3336 35.0041 25.3009 35.0692 25.2359L35.7332 24.5719C35.7958 24.7022 35.8335 24.8462 35.8335 25.0002Z" fill="#E3D8E8"/>
</g>
<defs>
<linearGradient id="paint0_linear_241_13811" x1="25.3904" y1="41.2235" x2="60.0566" y2="-21.0881" gradientUnits="userSpaceOnUse">
<stop stop-color="#713E8B"/>
<stop offset="0.54" stop-color="#D4242F"/>
<stop offset="1" stop-color="#713E8B"/>
</linearGradient>
<clipPath id="clip0_241_13811">
<rect width="20" height="20" fill="white" transform="translate(20 20)"/>
</clipPath>
</defs>
</svg>
