<svg width="41" height="40" viewBox="0 0 41 40" fill="none" xmlns="http://www.w3.org/2000/svg">
<circle cx="20.8821" cy="20" r="20" fill="#F2F2F2"/>
<path d="M30.8312 16.0027C30.7844 14.9179 30.6125 14.172 30.3663 13.5258C30.1123 12.8398 29.7215 12.2256 29.2095 11.7151C28.7093 11.1965 28.1036 10.7936 27.4393 10.5384C26.8024 10.2871 26.0755 10.1117 25.0126 10.0639C23.9418 10.012 23.6019 10 20.886 10C18.1701 10 17.8301 10.012 16.7633 10.0598C15.7004 10.1077 14.9697 10.2832 14.3366 10.5344C13.6644 10.7936 13.0626 11.1925 12.5624 11.7151C12.0544 12.2256 11.6598 12.8438 11.4096 13.5219C11.1634 14.172 10.9915 14.9138 10.9447 15.9986C10.8938 17.0916 10.8821 17.4386 10.8821 20.2106C10.8821 22.9826 10.8938 23.3295 10.9407 24.4184C10.9876 25.5033 11.1596 26.2491 11.4058 26.8953C11.6598 27.5813 12.0544 28.1955 12.5624 28.7061C13.0626 29.2246 13.6684 29.6275 14.3327 29.8827C14.9697 30.134 15.6964 30.3094 16.7595 30.3572C17.8262 30.4052 18.1663 30.4171 20.8822 30.4171C23.5981 30.4171 23.938 30.4052 25.0049 30.3572C26.0677 30.3094 26.7985 30.134 27.4315 29.8827C28.7759 29.3522 29.8387 28.2673 30.3585 26.8953C30.6046 26.2452 30.7766 25.5033 30.8235 24.4184C30.8703 23.3295 30.8821 22.9826 30.8821 20.2106C30.8821 17.4386 30.8781 17.0916 30.8312 16.0027ZM29.0299 24.3387C28.9868 25.3358 28.8227 25.8742 28.6859 26.2332C28.3498 27.1227 27.6582 27.8286 26.7867 28.1717C26.435 28.3113 25.9036 28.4787 24.9305 28.5225C23.8754 28.5705 23.559 28.5824 20.8899 28.5824C18.2209 28.5824 17.9005 28.5705 16.8492 28.5225C15.8723 28.4787 15.3447 28.3113 14.993 28.1717C14.5594 28.0081 14.1646 27.7488 13.8442 27.4098C13.512 27.0787 13.258 26.6799 13.0978 26.2372C12.961 25.8783 12.7969 25.3358 12.754 24.3427C12.707 23.2658 12.6954 22.9427 12.6954 20.2185C12.6954 17.4943 12.707 17.1673 12.754 16.0945C12.7969 15.0973 12.961 14.5589 13.0978 14.1999C13.258 13.7571 13.512 13.3544 13.8482 13.0272C14.1724 12.6882 14.5632 12.4289 14.997 12.2655C15.3487 12.1259 15.8802 11.9584 16.8532 11.9145C17.9083 11.8666 18.2249 11.8547 20.8938 11.8547C23.5668 11.8547 23.8832 11.8666 24.9345 11.9145C25.9114 11.9584 26.439 12.1259 26.7907 12.2655C27.2243 12.4289 27.6191 12.6882 27.9395 13.0272C28.2717 13.3583 28.5257 13.7571 28.6859 14.1999C28.8227 14.5589 28.9868 15.1012 29.0299 16.0945C29.0767 17.1714 29.0885 17.4943 29.0885 20.2185C29.0885 22.9427 29.0767 23.2618 29.0299 24.3387Z" fill="url(#paint0_linear_142_249)"/>
<path d="M20.886 14.9648C18.0491 14.9648 15.7473 17.314 15.7473 20.2097C15.7473 23.1054 18.0491 25.4546 20.886 25.4546C23.7231 25.4546 26.0248 23.1054 26.0248 20.2097C26.0248 17.314 23.7231 14.9648 20.886 14.9648ZM20.886 23.612C19.0456 23.612 17.5527 22.0884 17.5527 20.2097C17.5527 18.3311 19.0456 16.8075 20.886 16.8075C22.7267 16.8075 24.2194 18.3311 24.2194 20.2097C24.2194 22.0884 22.7267 23.612 20.886 23.612Z" fill="url(#paint1_linear_142_249)"/>
<path d="M27.4276 14.7596C27.4276 15.4358 26.8904 15.984 26.2278 15.984C25.5653 15.984 25.0281 15.4358 25.0281 14.7596C25.0281 14.0833 25.5653 13.5352 26.2278 13.5352C26.8904 13.5352 27.4276 14.0833 27.4276 14.7596Z" fill="url(#paint2_linear_142_249)"/>
<defs>
<linearGradient id="paint0_linear_142_249" x1="19.3456" y1="24.0277" x2="31.2691" y2="3.03317" gradientUnits="userSpaceOnUse">
<stop stop-color="#713E8B"/>
<stop offset="0.54" stop-color="#D4242F"/>
<stop offset="1" stop-color="#713E8B"/>
</linearGradient>
<linearGradient id="paint1_linear_142_249" x1="20.0965" y1="22.1719" x2="26.2219" y2="11.3845" gradientUnits="userSpaceOnUse">
<stop stop-color="#713E8B"/>
<stop offset="0.54" stop-color="#D4242F"/>
<stop offset="1" stop-color="#713E8B"/>
</linearGradient>
<linearGradient id="paint2_linear_142_249" x1="26.0435" y1="15.2177" x2="27.4735" y2="12.6992" gradientUnits="userSpaceOnUse">
<stop stop-color="#713E8B"/>
<stop offset="0.54" stop-color="#D4242F"/>
<stop offset="1" stop-color="#713E8B"/>
</linearGradient>
</defs>
</svg>
