<svg width="60" height="60" viewBox="0 0 60 60" fill="none" xmlns="http://www.w3.org/2000/svg">
<circle cx="30" cy="30" r="29.5" fill="url(#paint0_linear_241_13808)" stroke="#713E8B"/>
<path d="M39.0901 24.9021L30.138 21.4156C30.0393 21.3771 29.9299 21.3771 29.8311 21.4156L20.8789 24.9021C20.7166 24.9653 20.6096 25.1217 20.6096 25.296C20.6096 25.4702 20.7166 25.6267 20.8789 25.6899L29.8311 29.1765C29.9299 29.2149 30.0393 29.2149 30.138 29.1765L39.0901 25.6899C39.2525 25.6267 39.3594 25.4702 39.3594 25.296C39.3594 25.1217 39.2525 24.9653 39.0901 24.9021ZM29.9845 28.3291L22.1967 25.296L29.9845 22.263L37.7721 25.296L29.9845 28.3291Z" fill="#E3D8E8"/>
<path d="M39.0938 29.5619L35.3259 28.0524C35.1858 27.994 35.0253 28.0153 34.9052 28.1079C34.7849 28.2006 34.724 28.3506 34.7447 28.5009C34.7656 28.6511 34.8656 28.7786 35.0064 28.8349L35.0115 28.8371L37.7862 29.9487L29.9844 32.9873L22.1748 29.9457L25.051 28.7761C25.2678 28.6892 25.3731 28.4433 25.2863 28.2266C25.1994 28.0099 24.9534 27.9045 24.7366 27.9914L24.7325 27.993L20.8727 29.5627C20.7124 29.6279 20.6079 29.7843 20.6093 29.9573C20.6106 30.1305 20.7172 30.2854 20.8786 30.3481L29.8308 33.8346C29.9295 33.8731 30.039 33.8731 30.1375 33.8346L39.0898 30.3481C39.2514 30.2853 39.3581 30.1299 39.3591 29.9563C39.3599 29.7828 39.2546 29.6265 39.0936 29.5619H39.0938Z" fill="#E3D8E8"/>
<path d="M39.0913 34.2175L35.4257 32.775C35.209 32.6876 34.9629 32.7925 34.8755 33.0091C34.7883 33.2255 34.8932 33.4717 35.1097 33.5591L35.1161 33.5615L37.7772 34.6088L29.9844 37.6436L22.1767 34.6028L25.028 33.4473C25.2446 33.3596 25.3487 33.1132 25.2611 32.8969C25.1734 32.6806 24.927 32.5762 24.7106 32.6638L20.8733 34.219C20.7128 34.2839 20.6081 34.4404 20.6093 34.6137C20.6105 34.7868 20.7173 34.9417 20.8786 35.0046L29.8309 38.4912C29.9295 38.5297 30.0391 38.5297 30.1376 38.4912L39.0898 35.0046C39.252 34.9413 39.3589 34.7855 39.3591 34.6114C39.3595 34.4375 39.2532 34.2811 39.0912 34.2174L39.0913 34.2175Z" fill="#E3D8E8"/>
<defs>
<linearGradient id="paint0_linear_241_13808" x1="25.3904" y1="41.2235" x2="60.0566" y2="-21.0881" gradientUnits="userSpaceOnUse">
<stop stop-color="#713E8B"/>
<stop offset="0.54" stop-color="#D4242F"/>
<stop offset="1" stop-color="#713E8B"/>
</linearGradient>
</defs>
</svg>
