<svg width="60" height="60" viewBox="0 0 60 60" fill="none" xmlns="http://www.w3.org/2000/svg">
<circle cx="30" cy="30" r="29.5" fill="url(#paint0_linear_241_13810)" stroke="#713E8B"/>
<g clip-path="url(#clip0_241_13810)">
<path d="M30.0001 30.0273C24.7296 30.0273 20.4415 34.3154 20.4415 39.586C20.4415 39.8154 20.6277 40.0016 20.8571 40.0016C21.0865 40.0016 21.2727 39.8154 21.2727 39.586C21.2727 34.7734 25.1876 30.8585 30.0002 30.8585C34.8128 30.8585 38.7276 34.7734 38.7276 39.586C38.7276 39.8154 38.9138 40.0016 39.1432 40.0016C39.3727 40.0016 39.5588 39.8154 39.5588 39.586C39.5588 34.3146 35.2707 30.0273 30.0001 30.0273Z" fill="white"/>
<path d="M30.0007 20C27.4805 20 25.4292 22.0505 25.4292 24.5715C25.4292 27.0925 27.4806 29.143 30.0007 29.143C32.5208 29.143 34.5722 27.0925 34.5722 24.5715C34.5722 22.0505 32.5209 20 30.0007 20ZM30.0007 28.3118C27.9385 28.3118 26.2604 26.6337 26.2604 24.5715C26.2604 22.5093 27.9385 20.8312 30.0007 20.8312C32.0629 20.8312 33.741 22.5093 33.741 24.5715C33.741 26.6337 32.0629 28.3118 30.0007 28.3118Z" fill="white"/>
</g>
<defs>
<linearGradient id="paint0_linear_241_13810" x1="25.3904" y1="41.2235" x2="60.0566" y2="-21.0881" gradientUnits="userSpaceOnUse">
<stop stop-color="#713E8B"/>
<stop offset="0.54" stop-color="#D4242F"/>
<stop offset="1" stop-color="#713E8B"/>
</linearGradient>
<clipPath id="clip0_241_13810">
<rect width="20" height="20" fill="white" transform="translate(20 20)"/>
</clipPath>
</defs>
</svg>
