<svg width="13" height="13" viewBox="0 0 13 13" fill="none" xmlns="http://www.w3.org/2000/svg">
<g clip-path="url(#clip0_433_27175)">
<path d="M8.76087 5.08695C8.91687 5.08695 9.04349 4.96034 9.04349 4.80434V1.41303C9.04346 0.634174 8.40987 0 7.63043 0H1.41303C0.633617 0 0 0.634174 0 1.41303V11.5869C0 12.3658 0.633617 13 1.41303 13H7.63043C8.40987 13 9.04346 12.3658 9.04346 11.5869V8.19564C9.04346 8.03964 8.91685 7.91302 8.76085 7.91302C8.60485 7.91302 8.47826 8.03964 8.47826 8.19564V11.5869C8.47826 12.0544 8.09787 12.4348 7.63043 12.4348H1.41303C0.94559 12.4348 0.565208 12.0544 0.565208 11.5869V1.41303C0.565208 0.94559 0.94559 0.565208 1.41303 0.565208H7.63043C8.09787 0.565208 8.47826 0.94559 8.47826 1.41303V4.80434C8.47826 4.96034 8.60487 5.08695 8.76087 5.08695Z" fill="#713E8B"/>
<path d="M12.7172 6.21777H3.67373C3.51773 6.21777 3.39111 6.34439 3.39111 6.50039C3.39111 6.65639 3.51773 6.78298 3.67373 6.78298H12.7172C12.8732 6.78298 12.9998 6.65636 12.9998 6.50036C12.9998 6.34436 12.8732 6.21777 12.7172 6.21777Z" fill="#713E8B"/>
<path d="M12.9167 6.30078L11.221 4.60512C11.1108 4.49491 10.9316 4.49491 10.8214 4.60512C10.7112 4.71534 10.7112 4.89452 10.8214 5.00474L12.317 6.50031L10.8214 7.99587C10.7112 8.10609 10.7112 8.28527 10.8214 8.39549C10.8768 8.4503 10.9492 8.47802 11.0215 8.47802C11.0939 8.47802 11.1662 8.45033 11.221 8.39607L12.9167 6.70042C13.0269 6.59018 13.0269 6.41099 12.9167 6.30078Z" fill="#713E8B"/>
</g>
<defs>
<clipPath id="clip0_433_27175">
<rect width="13" height="13" fill="white"/>
</clipPath>
</defs>
</svg>
