<svg width="13" height="13" viewBox="0 0 13 13" fill="none" xmlns="http://www.w3.org/2000/svg">
<g clip-path="url(#clip0_433_27105)">
<path d="M10.021 10.8336C9.98796 10.8336 9.95546 10.8276 9.9235 10.8157L2.88183 8.10739C2.77729 8.06731 2.7085 7.96656 2.7085 7.85443V4.60443C2.7085 4.49231 2.77729 4.39156 2.88183 4.35147L9.9235 1.64314C10.0075 1.61064 10.1001 1.62256 10.1743 1.67293C10.248 1.72331 10.2918 1.80672 10.2918 1.8961V10.5628C10.2918 10.6521 10.248 10.7356 10.1743 10.7859C10.1282 10.8173 10.0752 10.8336 10.021 10.8336ZM3.25016 7.6681L9.75016 10.1684V2.29043L3.25016 4.79076V7.6681Z" fill="#713E8B"/>
<path d="M2.97917 8.12467H1.08333C0.485875 8.12467 0 7.6388 0 7.04134V5.41634C0 4.81888 0.485875 4.33301 1.08333 4.33301H2.97917C3.12867 4.33301 3.25 4.45434 3.25 4.60384V7.85384C3.25 8.00334 3.12867 8.12467 2.97917 8.12467ZM1.08333 4.87467C0.784333 4.87467 0.541667 5.11734 0.541667 5.41634V7.04134C0.541667 7.34034 0.784333 7.58301 1.08333 7.58301H2.70833V4.87467H1.08333Z" fill="#713E8B"/>
<path d="M4.06254 11.9168H2.43754C2.30267 11.9168 2.18837 11.8177 2.16942 11.6839L1.62775 7.8922C1.60662 7.74433 1.70954 7.60729 1.85796 7.58616C2.00312 7.56775 2.14287 7.66795 2.164 7.81637L2.67262 11.3751H3.75921L3.39737 8.15004C3.38112 8.00162 3.48783 7.86783 3.63625 7.8505C3.77979 7.83479 3.91846 7.94095 3.93579 8.08937L4.33121 11.6156C4.33987 11.6925 4.3155 11.7689 4.26404 11.8263C4.21312 11.8837 4.14 11.9168 4.06254 11.9168Z" fill="#713E8B"/>
<path d="M11.1043 4.87485C11.0171 4.87485 10.9315 4.8326 10.8789 4.75406C10.7961 4.63002 10.8297 4.46156 10.9542 4.37869L12.5792 3.29535C12.7027 3.21302 12.8712 3.24552 12.9546 3.37065C13.0375 3.49469 13.0039 3.66315 12.8793 3.74602L11.2543 4.82935C11.2083 4.86023 11.1563 4.87485 11.1043 4.87485Z" fill="#713E8B"/>
<path d="M12.7291 9.74971C12.6771 9.74971 12.6251 9.73509 12.5791 9.70421L10.9541 8.62088C10.8301 8.53801 10.7959 8.36955 10.8788 8.2455C10.9622 8.12092 11.1312 8.08788 11.2542 8.17021L12.8792 9.25355C13.0032 9.33642 13.0374 9.50488 12.9545 9.62892C12.9019 9.70746 12.8163 9.74971 12.7291 9.74971Z" fill="#713E8B"/>
<path d="M12.7293 6.77115H11.1043C10.9548 6.77115 10.8335 6.64982 10.8335 6.50032C10.8335 6.35082 10.9548 6.22949 11.1043 6.22949H12.7293C12.8788 6.22949 13.0002 6.35082 13.0002 6.50032C13.0002 6.64982 12.8788 6.77115 12.7293 6.77115Z" fill="#713E8B"/>
</g>
<defs>
<clipPath id="clip0_433_27105">
<rect width="13" height="13" fill="white"/>
</clipPath>
</defs>
</svg>
