<svg width="16" height="16" viewBox="0 0 16 16" fill="none" xmlns="http://www.w3.org/2000/svg">
<path d="M11.8902 4.42945V3.36796H12.0469C12.4323 3.36902 12.7469 3.05988 12.7527 2.67457V1.17492C12.747 0.789375 12.4326 0.480001 12.0469 0.480469H3.63344C3.24777 0.480001 2.93336 0.789375 2.92773 1.17492V2.67457C2.93359 3.05988 3.24801 3.36902 3.63344 3.36796H3.79023V4.42945C3.78965 4.93218 4.01875 5.40761 4.41227 5.72038L7.23344 7.97588L4.4677 10.1212C4.06281 10.4332 3.82609 10.9161 3.82773 11.4274V12.5929H3.63344C3.24801 12.5919 2.93359 12.901 2.92773 13.2863V14.786C2.93336 15.1715 3.24777 15.4809 3.63344 15.4804H12.0469C12.4326 15.4809 12.747 15.1715 12.7527 14.786V13.2863C12.7469 12.901 12.4323 12.5919 12.0469 12.5929H11.9277V11.4348C11.9254 10.9185 11.6835 10.4325 11.273 10.1192L8.45102 7.97295L11.2687 5.72026C11.6621 5.40749 11.8911 4.93194 11.8902 4.42945ZM3.67773 1.23047H12.0027V2.61796H3.67773V1.23047ZM12.0027 14.7304H3.67773V13.3429H4.13805C4.15961 13.3429 4.18141 13.349 4.20402 13.349C4.22652 13.349 4.24855 13.3429 4.27012 13.3429H11.4818C11.5033 13.3429 11.5253 13.349 11.5478 13.349C11.5704 13.349 11.5923 13.3429 11.6138 13.3429H12.0027V14.7304ZM11.1777 11.4348V12.5929H4.57773V11.4274C4.57715 11.148 4.70641 10.8842 4.92789 10.7138L7.84211 8.4533L10.8188 10.7161C11.0433 10.8872 11.176 11.1526 11.1777 11.4348ZM10.7996 5.13456L7.84094 7.50034L4.88125 5.13456C4.66586 4.96394 4.54023 4.70425 4.54023 4.42945V3.36796H11.1402V4.42945C11.1402 4.70425 11.0148 4.96382 10.7996 5.13456Z" fill="#713E8B"/>
</svg>
