<svg width="13" height="13" viewBox="0 0 13 13" fill="none" xmlns="http://www.w3.org/2000/svg">
<g clip-path="url(#clip0_433_27219)">
<path d="M12.9474 5.68598C12.905 5.35647 12.7185 5.06932 12.4359 4.8992C12.1578 4.73189 11.8232 4.70025 11.5129 4.81667C11.267 4.90824 10.9907 4.78162 10.8787 4.5318C10.747 4.2362 10.5848 3.95359 10.396 3.6919C10.2327 3.46412 10.2632 3.16625 10.4661 2.99893C10.7176 2.79206 10.8578 2.48685 10.8522 2.16073C10.8454 1.83063 10.6899 1.52541 10.4243 1.32421C9.99247 0.996953 9.52108 0.724509 9.02314 0.514831C8.71509 0.385405 8.37146 0.402362 8.0815 0.56231C7.79663 0.719449 7.60277 0.993561 7.54906 1.31404C7.50553 1.57517 7.26194 1.74757 6.98102 1.721C6.66563 1.68764 6.33612 1.68764 6.01903 1.721C5.737 1.74699 5.49508 1.57517 5.45154 1.31404C5.39842 0.993005 5.20398 0.718866 4.91911 0.56231C4.62915 0.402918 4.28549 0.385405 3.97747 0.514831C3.4795 0.724536 3.00811 0.996953 2.5763 1.32421C2.31064 1.52544 2.15523 1.83007 2.14844 2.16073C2.14222 2.48685 2.28296 2.79206 2.53505 3.00007C2.73797 3.1668 2.76791 3.46468 2.60457 3.6919C2.4158 3.95417 2.25302 4.23676 2.12187 4.53125C2.00882 4.7822 1.72962 4.90768 1.48147 4.81442C1.17739 4.70025 0.842765 4.73078 0.564122 4.89865C0.281505 5.06935 0.094983 5.35592 0.0525917 5.68487C0.0175129 5.95334 0 6.22748 0 6.4999C0 6.77234 0.0175129 7.04645 0.0525652 7.31381C0.0949565 7.64332 0.281478 7.93047 0.564095 8.10059C0.842182 8.26846 1.17736 8.30012 1.48709 8.18312C1.73351 8.091 2.0099 8.21817 2.12126 8.46799C2.25296 8.76359 2.41516 9.04621 2.60396 9.30789C2.7673 9.53567 2.73678 9.83355 2.53389 10.0009C2.28237 10.2077 2.14219 10.5129 2.14783 10.8391C2.15462 11.1692 2.31006 11.4744 2.57569 11.6756C3.00753 12.0028 3.47892 12.2753 3.97686 12.485C4.11365 12.5421 4.2572 12.5709 4.40021 12.5709C4.5794 12.5709 4.75744 12.5262 4.91853 12.4369C5.2034 12.2798 5.39726 12.0057 5.45096 11.6852C5.49449 11.4241 5.73697 11.2494 6.019 11.2782C6.3344 11.3116 6.66391 11.3116 6.981 11.2782C7.26133 11.2489 7.50495 11.4241 7.54848 11.6852C7.6016 12.0062 7.79605 12.2804 8.08092 12.4369C8.37087 12.5963 8.71453 12.6138 9.02256 12.4844C9.52052 12.2747 9.99191 12.0023 10.4237 11.675C10.6894 11.4738 10.8448 11.1692 10.8516 10.8385C10.8572 10.5124 10.7165 10.2072 10.465 9.99972C10.2621 9.83299 10.2321 9.53511 10.3955 9.30789C10.5842 9.04563 10.747 8.76303 10.8782 8.46855C10.9906 8.21815 11.2665 8.09097 11.5129 8.18312L11.6118 7.9186L11.5185 8.18537C11.8237 8.30068 12.1572 8.2696 12.4359 8.10115C12.7185 7.93044 12.905 7.64388 12.9474 7.31492C12.9825 7.04645 13 6.77231 13 6.49987C13 6.22748 12.9825 5.95334 12.9474 5.68598ZM12.3873 7.24259C12.3675 7.39973 12.2782 7.53594 12.1443 7.61677C12.0154 7.69477 11.8599 7.7089 11.7147 7.65522L11.7096 7.65352C11.1907 7.45966 10.5973 7.7157 10.3621 8.23797C10.2463 8.49796 10.1032 8.74666 9.93652 8.97841C9.59794 9.45094 9.67085 10.0777 10.1072 10.4372C10.2242 10.5333 10.2892 10.6758 10.2864 10.8272C10.283 10.9844 10.2095 11.1296 10.0829 11.2251C9.68784 11.5241 9.25828 11.7728 8.80326 11.9639C8.6563 12.0255 8.49182 12.0182 8.35392 11.9418C8.2194 11.8678 8.13179 11.7435 8.10635 11.592C8.01309 11.0324 7.50723 10.6582 6.92223 10.7165C6.64414 10.7453 6.35533 10.7453 6.07835 10.7165C5.49335 10.652 4.98691 11.0313 4.89365 11.592C4.86877 11.7435 4.7806 11.8678 4.64608 11.9418C4.50818 12.0187 4.3437 12.0261 4.19674 11.9639C3.74175 11.7728 3.31161 11.5242 2.91708 11.2251C2.79104 11.1296 2.71699 10.9844 2.7136 10.8278C2.71076 10.6763 2.77634 10.5339 2.89334 10.4373C3.32968 10.0778 3.40259 9.45094 3.06346 8.97843C2.89673 8.74669 2.75371 8.49801 2.63729 8.23744C2.457 7.83443 2.06247 7.5897 1.64987 7.5897C1.52723 7.5897 1.40344 7.61118 1.28305 7.65583C1.14117 7.70953 0.985756 7.69483 0.856304 7.61683C0.721791 7.53599 0.633034 7.39978 0.613269 7.24209C0.581052 6.99791 0.565235 6.7481 0.565235 6.49995C0.565235 6.25183 0.581052 6.00198 0.613269 5.7567C0.633061 5.59956 0.722347 5.46335 0.856304 5.38252C0.984617 5.30507 1.14003 5.28981 1.28925 5.34577C1.81151 5.54077 2.40329 5.28472 2.63785 4.76191C2.75371 4.50192 2.89673 4.25321 3.06346 4.02146C3.40259 3.54893 3.32968 2.92154 2.89275 2.56265C2.77575 2.46655 2.71076 2.32412 2.71357 2.17265C2.71696 2.01551 2.79102 1.87082 2.91705 1.77473C3.31158 1.47574 3.74169 1.22703 4.19671 1.03598C4.34368 0.973796 4.50815 0.981162 4.64606 1.05747C4.78057 1.13152 4.86819 1.25586 4.89362 1.40733C4.98744 1.96745 5.49613 2.34447 6.07774 2.28398C6.35583 2.25515 6.64465 2.25515 6.92162 2.28398C7.50606 2.34388 8.01306 1.96859 8.10633 1.40847C8.1312 1.257 8.21938 1.13263 8.35389 1.05861C8.49179 0.981745 8.65627 0.974379 8.80324 1.03656C9.25823 1.22761 9.68837 1.47629 10.0829 1.77531C10.2089 1.87082 10.283 2.01609 10.2864 2.17265C10.2892 2.32412 10.2236 2.46655 10.1066 2.5632C9.6703 2.92268 9.59739 3.54952 9.93652 4.02202C10.1032 4.25377 10.2463 4.50245 10.3627 4.76302C10.5967 5.28584 11.1885 5.54077 11.7169 5.34407C11.8582 5.28981 12.0142 5.30507 12.1437 5.38307C12.2782 5.46391 12.367 5.60012 12.3867 5.75781C12.4189 6.00198 12.4348 6.2518 12.4348 6.49995C12.4348 6.74804 12.4189 6.99786 12.3873 7.24259Z" fill="#713E8B"/>
<path d="M6.50003 3.95703C5.09772 3.95703 3.95654 5.0982 3.95654 6.50051C3.95654 7.90281 5.09772 9.04398 6.50003 9.04398C7.90233 9.04398 9.04351 7.90281 9.04351 6.50051C9.04351 5.0982 7.90233 3.95703 6.50003 3.95703ZM6.50003 8.47878C5.40916 8.47878 4.52175 7.59139 4.52175 6.50051C4.52175 5.40962 5.40914 4.52224 6.50003 4.52224C7.59092 4.52224 8.4783 5.40965 8.4783 6.50051C8.4783 7.59137 7.59092 8.47878 6.50003 8.47878Z" fill="#713E8B"/>
</g>
<defs>
<clipPath id="clip0_433_27219">
<rect width="13" height="13" fill="white"/>
</clipPath>
</defs>
</svg>
