<svg width="13" height="13" viewBox="0 0 13 13" fill="none" xmlns="http://www.w3.org/2000/svg">
<g clip-path="url(#clip0_433_27146)">
<path d="M10.0206 9.75C9.27425 9.75 8.6665 10.3577 8.6665 11.1041C8.6665 11.8505 9.27425 12.4583 10.0206 12.4583C10.767 12.4583 11.3748 11.8506 11.3748 11.1042C11.3748 10.3578 10.767 9.75 10.0206 9.75ZM10.0206 11.9167C9.57269 11.9167 9.20816 11.5521 9.20816 11.1042C9.20816 10.6562 9.57269 10.2917 10.0206 10.2917C10.4686 10.2917 10.8331 10.6562 10.8331 11.1042C10.8331 11.5521 10.4686 11.9167 10.0206 11.9167Z" fill="#713E8B"/>
<path d="M4.60414 9.75C3.85774 9.75 3.25 10.3577 3.25 11.1041C3.25 11.8505 3.85774 12.4583 4.60414 12.4583C5.35055 12.4583 5.95829 11.8505 5.95829 11.1041C5.95829 10.3577 5.35057 9.75 4.60414 9.75ZM4.60414 11.9167C4.15618 11.9167 3.79165 11.5521 3.79165 11.1042C3.79165 10.6562 4.15618 10.2917 4.60414 10.2917C5.05211 10.2917 5.41664 10.6562 5.41664 11.1042C5.41664 11.5521 5.05211 11.9167 4.60414 11.9167Z" fill="#713E8B"/>
<path d="M11.6457 8.66691H4.85274C4.20978 8.66691 3.65134 8.2092 3.52512 7.57817L2.16123 0.75974C2.13576 0.632991 2.02473 0.541992 1.89582 0.541992H0.270839C0.121341 0.541992 0 0.663307 0 0.812806C0 0.962304 0.121341 1.08365 0.270839 1.08365H1.67373L2.99375 7.68486C3.17034 8.56776 3.95249 9.20857 4.85274 9.20857H11.6457C11.7952 9.20857 11.9165 9.08723 11.9165 8.93773C11.9165 8.78823 11.7952 8.66691 11.6457 8.66691Z" fill="#713E8B"/>
<path d="M12.9336 2.26015C12.8822 2.20112 12.8074 2.16699 12.7289 2.16699H2.43734C2.28784 2.16699 2.1665 2.28833 2.1665 2.43783C2.1665 2.58733 2.28784 2.70865 2.43734 2.70865H12.4164L11.9787 5.77933C11.9614 5.90067 11.8644 5.99545 11.7431 6.01008L3.21787 7.04357C3.0689 7.06198 2.96328 7.19685 2.98115 7.34528C2.99794 7.48287 3.1144 7.58362 3.24981 7.58362C3.26065 7.58362 3.27147 7.58309 3.28231 7.582L11.8075 6.54798C12.1715 6.50357 12.4618 6.21919 12.5138 5.85626L12.997 2.47576C13.0084 2.39827 12.9851 2.31918 12.9336 2.26015Z" fill="#713E8B"/>
</g>
<defs>
<clipPath id="clip0_433_27146">
<rect width="13" height="13" fill="white"/>
</clipPath>
</defs>
</svg>
