<svg width="13" height="13" viewBox="0 0 13 13" fill="none" xmlns="http://www.w3.org/2000/svg">
<g clip-path="url(#clip0_433_24820)">
<path d="M6.50021 6.5166C3.07435 6.5166 0.287109 9.30387 0.287109 12.7297C0.287109 12.8788 0.408138 12.9998 0.557253 12.9998C0.706368 12.9998 0.827397 12.8788 0.827397 12.7297C0.827397 9.60154 3.37207 7.05686 6.50024 7.05686C9.6284 7.05686 12.1731 9.60154 12.1731 12.7297C12.1731 12.8788 12.2941 12.9998 12.4432 12.9998C12.5923 12.9998 12.7134 12.8788 12.7134 12.7297C12.7133 9.30331 9.92608 6.5166 6.50021 6.5166Z" fill="#713E8B"/>
<path d="M6.4998 0C4.86169 0 3.52832 1.33284 3.52832 2.97148C3.52832 4.61012 4.86172 5.94296 6.4998 5.94296C8.13788 5.94296 9.47128 4.61012 9.47128 2.97148C9.47128 1.33284 8.13791 0 6.4998 0ZM6.4998 5.4027C5.15939 5.4027 4.06858 4.31189 4.06858 2.97148C4.06858 1.63107 5.15939 0.540262 6.4998 0.540262C7.84021 0.540262 8.93102 1.63107 8.93102 2.97148C8.93102 4.31189 7.84021 5.4027 6.4998 5.4027Z" fill="#713E8B"/>
</g>
<defs>
<clipPath id="clip0_433_24820">
<rect width="13" height="13" fill="white"/>
</clipPath>
</defs>
</svg>
