<svg width="16" height="16" viewBox="0 0 16 16" fill="none" xmlns="http://www.w3.org/2000/svg">
<g clip-path="url(#clip0_364_16245)">
<path d="M8.01039 0.5C3.87887 0.5 0.517578 3.86449 0.517578 8.00002C0.517578 12.1355 3.87887 15.5 8.01039 15.5C12.1418 15.5 15.5031 12.1355 15.5031 8.00002C15.5031 3.86449 12.1418 0.5 8.01039 0.5ZM8.01039 14.7683C4.28222 14.7683 1.24929 11.732 1.24929 8.00002C1.24929 4.26807 4.28222 1.23171 8.01039 1.23171C11.7383 1.23171 14.7714 4.26807 14.7714 8.00002C14.7714 11.732 11.7383 14.7683 8.01039 14.7683Z" fill="#713E8B"/>
<path d="M11.9524 7.44256L7.9181 7.81139L6.07706 5.96782C5.93495 5.82422 5.70332 5.82308 5.55972 5.96531C5.41601 6.1073 5.41486 6.33894 5.55709 6.48265L5.55937 6.48494L7.52172 8.44981C7.59032 8.51852 7.6835 8.55717 7.78056 8.55717C7.79154 8.55717 7.80286 8.55671 7.81395 8.55568L12.0189 8.1713C12.22 8.15267 12.3678 7.97477 12.3494 7.77366C12.3311 7.57256 12.1533 7.42461 11.9524 7.44256Z" fill="#713E8B"/>
</g>
<defs>
<clipPath id="clip0_364_16245">
<rect width="16" height="16" fill="white"/>
</clipPath>
</defs>
</svg>
