<svg width="210" height="59" viewBox="0 0 210 59" fill="none" xmlns="http://www.w3.org/2000/svg">
<path d="M68.5967 0.45166H39.0363C31.0993 0.45166 24.6652 6.86933 24.6652 14.7859V44.2706C24.6652 52.1872 31.0993 58.6049 39.0363 58.6049H68.5967C76.5336 58.6049 82.9678 52.1872 82.9678 44.2706V14.7859C82.9678 6.86933 76.5336 0.45166 68.5967 0.45166Z" fill="url(#paint0_linear_233_13490)"/>
<path d="M71.387 26.1069C70.7542 25.5045 70.0049 25.0373 69.1848 24.7338C68.3647 24.4304 67.4911 24.2971 66.6176 24.3422C65.4866 24.3356 64.3676 24.5735 63.3377 25.0397C62.3628 25.466 61.5061 26.1218 60.8412 26.9509C60.3043 26.1134 59.5438 25.4419 58.6453 25.0118C57.6924 24.5454 56.6437 24.3066 55.5822 24.3143C54.6096 24.3051 53.6447 24.4876 52.743 24.8514C51.9053 25.1889 51.1582 25.7167 50.5611 26.3929V26.3929L49.7848 27.0905C49.5583 26.7246 49.2882 26.3873 48.9806 26.086C48.3408 25.4846 47.5866 25.0174 46.7626 24.7118C45.9386 24.4063 45.0615 24.2688 44.1833 24.3073C43.2107 24.3001 42.2446 24.4654 41.33 24.7956C40.4945 25.0952 39.7336 25.5711 39.0992 26.1906V18.5317H34.4836V40.5249H39.1132V32.6428C39.0261 31.4763 39.4001 30.3222 40.1552 29.4272C40.5188 29.0607 40.956 28.7749 41.438 28.5886C41.9201 28.4023 42.4362 28.3196 42.9525 28.346C43.3976 28.3163 43.8439 28.3847 44.2596 28.5462C44.6754 28.7077 45.0504 28.9585 45.3581 29.2807C45.9613 30.0815 46.2566 31.0714 46.1903 32.0708V40.5249H50.8198V31.7779C50.8603 30.9048 51.1871 30.0691 51.7499 29.3993C52.0721 29.048 52.4677 28.7715 52.9088 28.5895C53.3499 28.4075 53.8256 28.3244 54.3025 28.346C56.3305 28.346 57.3445 29.5992 57.3445 32.1057V40.5249H61.9741V32.5242C61.8962 31.3993 62.2402 30.2856 62.9391 29.3993C63.2669 29.0456 63.6685 28.768 64.1156 28.586C64.5627 28.404 65.0443 28.3221 65.5266 28.346C65.9476 28.3201 66.3689 28.3908 66.7581 28.5529C67.1472 28.7149 67.494 28.9639 67.7715 29.2807C68.3475 30.0928 68.6242 31.0785 68.5547 32.0708V40.5249H73.1912V31.3942C73.1679 29.0459 72.5665 27.2834 71.387 26.1069Z" fill="white"/>
<path d="M114.304 9.88916V32.0149H109.773V22.947H100.877V32.0149H96.3457V9.88916H100.877V18.6153H109.773V9.88916H114.304Z" fill="#BCBEC0"/>
<path d="M131.844 27.2717H122.752L121.018 32.0149H116.375L125.102 9.88916H129.578L138.333 32.0149H133.578L131.844 27.2717ZM130.445 23.3864L127.312 14.9114L124.207 23.3864H130.445Z" fill="#BCBEC0"/>
<path d="M153.368 10.8658C154.608 11.4838 155.635 12.4549 156.32 13.6559C157.037 14.9624 157.395 16.4355 157.355 17.9248C157.393 19.4073 157.036 20.8732 156.32 22.1728C155.643 23.3806 154.614 24.3539 153.368 24.9629C151.96 25.634 150.412 25.9639 148.851 25.9255H144.907V32.0289H140.375V9.88926H148.851C150.413 9.85044 151.962 10.1853 153.368 10.8658V10.8658ZM151.704 20.7429C152.067 20.378 152.35 19.9411 152.533 19.4605C152.716 18.9798 152.796 18.4661 152.767 17.9527C152.803 17.4282 152.726 16.902 152.543 16.4091C152.36 15.9161 152.074 15.4675 151.704 15.0928C150.837 14.3731 149.724 14.0157 148.599 14.0954H144.907V21.7682H148.599C149.728 21.8431 150.843 21.4752 151.704 20.7429V20.7429Z" fill="#BCBEC0"/>
<path d="M173.537 10.8658C174.776 11.4838 175.803 12.4549 176.488 13.6559C177.206 14.9624 177.563 16.4355 177.523 17.9248C177.561 19.4073 177.204 20.8732 176.488 22.1728C175.812 23.3806 174.782 24.3539 173.537 24.9629C172.128 25.634 170.58 25.9639 169.019 25.9255H165.075V32.0289H160.543V9.88926H169.019C170.582 9.85044 172.131 10.1853 173.537 10.8658V10.8658ZM171.873 20.7429C172.236 20.378 172.518 19.9411 172.701 19.4605C172.884 18.9798 172.964 18.4661 172.935 17.9527C172.971 17.4282 172.895 16.902 172.712 16.4091C172.528 15.9161 172.242 15.4675 171.873 15.0928C171.005 14.3731 169.893 14.0157 168.768 14.0954H165.075V21.7682H168.768C169.906 21.8505 171.032 21.4822 171.9 20.7429H171.873Z" fill="#BCBEC0"/>
<path d="M190.167 24.1746V32.0149H185.635V24.1118L178.055 9.88916H182.866L188.097 19.7174L193.328 9.88916H197.776L190.167 24.1746Z" fill="#BCBEC0"/>
<path d="M113.5 39.9876C113.926 40.4692 114.251 41.0307 114.456 41.6392C114.661 42.2476 114.743 42.8908 114.696 43.5311V49.9623H113.199V43.6845C113.266 42.7312 112.966 41.7884 112.36 41.0479C112.056 40.7364 111.688 40.4941 111.281 40.3376C110.874 40.1811 110.439 40.1141 110.003 40.1411C109.499 40.1148 108.995 40.1965 108.524 40.3806C108.054 40.5646 107.628 40.8468 107.276 41.2083C106.575 42.0211 106.219 43.0745 106.283 44.1449V49.9693H104.787V43.6915C104.853 42.7382 104.553 41.7954 103.947 41.0548C103.639 40.7425 103.268 40.4999 102.857 40.3434C102.447 40.1869 102.008 40.1203 101.57 40.148C101.067 40.1229 100.565 40.2051 100.097 40.3892C99.6294 40.5732 99.2063 40.8549 98.8563 41.2153C98.1479 42.0248 97.7863 43.0792 97.8493 44.1519V49.9763H96.3457V38.8576H97.7863V40.8804C98.1598 40.2036 98.7238 39.6508 99.4087 39.2901C100.161 38.913 100.994 38.7239 101.835 38.739C102.68 38.7193 103.515 38.9239 104.255 39.3319C104.945 39.7335 105.485 40.348 105.794 41.0827C106.199 40.3504 106.812 39.7535 107.556 39.3668C108.365 38.9382 109.27 38.7221 110.185 38.739C110.794 38.7069 111.404 38.8014 111.974 39.0163C112.545 39.2312 113.064 39.562 113.5 39.9876V39.9876Z" fill="#BCBEC0"/>
<path d="M120.472 49.3208C119.622 48.8497 118.918 48.1548 118.437 47.3119C117.951 46.418 117.696 45.4169 117.696 44.3997C117.696 43.3825 117.951 42.3814 118.437 41.4875C118.921 40.6482 119.624 39.9562 120.472 39.4856C121.364 39.0141 122.358 38.7676 123.368 38.7676C124.377 38.7676 125.371 39.0141 126.263 39.4856C127.108 39.9531 127.805 40.6464 128.277 41.4875C128.759 42.383 129.011 43.3834 129.011 44.3997C129.011 45.416 128.759 46.4164 128.277 47.3119C127.808 48.1567 127.11 48.8529 126.263 49.3208C125.374 49.8012 124.379 50.0529 123.368 50.0529C122.356 50.0529 121.361 49.8012 120.472 49.3208V49.3208ZM125.486 48.1838C126.116 47.8271 126.628 47.2966 126.962 46.6562C127.307 45.9538 127.487 45.1819 127.487 44.3997C127.487 43.6175 127.307 42.8456 126.962 42.1432C126.628 41.5028 126.116 40.9723 125.486 40.6156C124.835 40.2633 124.105 40.0789 123.364 40.0789C122.623 40.0789 121.893 40.2633 121.242 40.6156C120.612 40.9741 120.098 41.5039 119.759 42.1432C119.405 42.843 119.22 43.6159 119.22 44.3997C119.22 45.1835 119.405 45.9564 119.759 46.6562C120.098 47.2955 120.612 47.8253 121.242 48.1838C121.893 48.5361 122.623 48.7206 123.364 48.7206C124.105 48.7206 124.835 48.5361 125.486 48.1838V48.1838Z" fill="#BCBEC0"/>
<path d="M149.229 39.9876C149.659 40.4648 149.989 41.0227 150.2 41.6287C150.412 42.2348 150.5 42.8767 150.459 43.5171V49.9484H148.921V43.6706C148.989 42.7182 148.692 41.7755 148.089 41.0339C147.784 40.7228 147.416 40.4808 147.009 40.3243C146.603 40.1679 146.167 40.1006 145.732 40.1271C145.227 40.1009 144.723 40.1826 144.253 40.3666C143.782 40.5507 143.357 40.8329 143.005 41.1943C142.303 42.0071 141.947 43.0605 142.012 44.131V49.9553H140.508V43.6776C140.573 42.7256 140.276 41.7842 139.676 41.0409C139.368 40.7285 138.996 40.4859 138.586 40.3295C138.176 40.173 137.736 40.1064 137.298 40.1341C136.795 40.1098 136.292 40.1923 135.823 40.3763C135.354 40.5603 134.93 40.8415 134.578 41.2013C133.875 42.0134 133.516 43.0666 133.578 44.1379V49.9623H132.074V38.8576H133.515V40.8805C133.895 40.2014 134.466 39.6485 135.158 39.2901C135.913 38.9138 136.748 38.7247 137.592 38.739C138.437 38.7203 139.272 38.9249 140.012 39.3319C140.701 39.7318 141.239 40.3471 141.543 41.0827C141.953 40.3514 142.568 39.7551 143.312 39.3668C144.121 38.9382 145.026 38.7221 145.942 38.739C146.546 38.7113 147.15 38.8078 147.715 39.0226C148.281 39.2374 148.796 39.5659 149.229 39.9876V39.9876Z" fill="#BCBEC0"/>
<path d="M164.229 44.8707H154.928C154.951 45.4007 155.081 45.9207 155.309 46.3999C155.537 46.8792 155.859 47.3079 156.257 47.6608C157.104 48.3827 158.192 48.7611 159.306 48.721C159.958 48.7299 160.606 48.6041 161.208 48.3513C161.781 48.1063 162.292 47.737 162.704 47.2702L163.551 48.2397C163.054 48.831 162.42 49.293 161.704 49.586C160.826 49.9347 159.882 50.0915 158.938 50.0458C157.993 50.0001 157.069 49.7529 156.229 49.3209C155.366 48.8566 154.652 48.1607 154.166 47.312C153.663 46.4257 153.407 45.4214 153.424 44.4033C153.406 43.388 153.647 42.3847 154.124 41.4876C154.574 40.6584 155.241 39.9665 156.054 39.4857C156.902 39.0148 157.856 38.7676 158.827 38.7676C159.797 38.7676 160.752 39.0148 161.599 39.4857C162.413 39.9603 163.079 40.6509 163.523 41.4806C164.002 42.3793 164.243 43.3855 164.222 44.4033L164.229 44.8707ZM156.166 41.0831C155.43 41.7858 154.988 42.7402 154.928 43.7546H162.809C162.749 42.7418 162.31 41.7885 161.578 41.0831C160.84 40.397 159.86 40.0286 158.851 40.0577C157.857 40.0318 156.892 40.3976 156.166 41.0761V41.0831Z" fill="#BCBEC0"/>
<path d="M176.334 39.988C176.768 40.4642 177.1 41.023 177.312 41.6308C177.523 42.2385 177.61 42.8826 177.565 43.5244V49.9557H176.069V43.6779C176.133 42.7201 175.822 41.7748 175.201 41.0412C174.875 40.7264 174.486 40.483 174.06 40.3269C173.633 40.1707 173.179 40.1052 172.726 40.1344C172.204 40.1073 171.683 40.188 171.194 40.3717C170.706 40.5554 170.26 40.838 169.886 41.2017C169.523 41.5961 169.243 42.0593 169.063 42.5637C168.883 43.0682 168.806 43.6036 168.838 44.1383V49.9627H167.313V38.8579H168.754V40.9017C169.157 40.2267 169.747 39.6819 170.453 39.3323C171.236 38.9426 172.103 38.7487 172.978 38.7673C173.591 38.7344 174.204 38.8257 174.781 39.0354C175.358 39.2452 175.886 39.5692 176.334 39.988V39.988Z" fill="#BCBEC0"/>
<path d="M187.482 49.2717C187.178 49.5381 186.82 49.7356 186.433 49.8507C186.015 49.9852 185.578 50.0535 185.139 50.053C184.701 50.0806 184.261 50.0201 183.847 49.8751C183.432 49.7301 183.051 49.5036 182.726 49.209C182.431 48.8888 182.204 48.5125 182.059 48.1025C181.913 47.6925 181.852 47.2574 181.88 46.8234V40.1201H179.894V38.8576H181.88V36.4302H183.384V38.8576H186.761V40.1201H183.384V46.7397C183.345 47.2874 183.523 47.8286 183.88 48.2464C184.065 48.424 184.285 48.5615 184.525 48.6504C184.766 48.7392 185.023 48.7774 185.279 48.7625C185.583 48.7626 185.886 48.7131 186.174 48.6161C186.45 48.5262 186.707 48.3841 186.929 48.1975L187.482 49.2717Z" fill="#BCBEC0"/>
<path d="M190.601 49.6623C189.896 49.466 189.237 49.1317 188.664 48.6788L189.363 47.5C189.892 47.8962 190.486 48.1983 191.118 48.3928C191.826 48.6278 192.568 48.7456 193.314 48.7416C194.095 48.7993 194.875 48.6348 195.566 48.2673C195.791 48.1257 195.974 47.9271 196.097 47.6918C196.22 47.4565 196.278 47.193 196.265 46.928C196.273 46.7486 196.241 46.5698 196.171 46.4045C196.101 46.2392 195.994 46.0915 195.86 45.9724C195.565 45.7237 195.218 45.5427 194.846 45.4423C194.31 45.2944 193.766 45.178 193.216 45.0935C192.481 44.9681 191.754 44.7957 191.041 44.5773C190.504 44.4087 190.021 44.1006 189.643 43.6845C189.234 43.1954 189.026 42.5696 189.062 41.9337C189.056 41.4881 189.158 41.0476 189.36 40.6503C189.563 40.2529 189.859 39.9106 190.223 39.6527C191.176 39.0125 192.314 38.7014 193.461 38.7669C194.188 38.7697 194.912 38.8658 195.615 39.0529C196.245 39.2033 196.845 39.458 197.391 39.8062L196.734 41.006C195.768 40.3579 194.624 40.0263 193.461 40.0573C192.704 40.0063 191.95 40.1811 191.293 40.5595C191.073 40.7041 190.893 40.9022 190.77 41.1353C190.648 41.3684 190.587 41.6288 190.594 41.8918C190.585 42.0796 190.616 42.267 190.686 42.4415C190.756 42.616 190.863 42.7735 190.999 42.9032C191.295 43.1643 191.647 43.3551 192.027 43.4613C192.584 43.6144 193.149 43.7378 193.72 43.831C194.441 43.9563 195.153 44.1264 195.853 44.3402C196.386 44.4983 196.869 44.7942 197.251 45.1981C197.649 45.6679 197.852 46.2719 197.818 46.8861C197.829 47.3418 197.724 47.7928 197.512 48.1967C197.301 48.6006 196.989 48.9441 196.608 49.195C195.597 49.821 194.418 50.1207 193.23 50.0529C192.339 50.0597 191.452 49.9279 190.601 49.6623V49.6623Z" fill="#BCBEC0"/>
<defs>
<linearGradient id="paint0_linear_233_13490" x1="49.3373" y1="40.4063" x2="82.8909" y2="-20.0605" gradientUnits="userSpaceOnUse">
<stop stop-color="#713E8B"/>
<stop offset="0.54" stop-color="#D4242F"/>
<stop offset="1" stop-color="#713E8B"/>
</linearGradient>
</defs>
</svg>
