<svg width="138" height="38" viewBox="0 0 138 38" fill="none" xmlns="http://www.w3.org/2000/svg">
<g filter="url(#filter0_d_162_3526)">
<rect x="4" width="130" height="30" rx="15" fill="url(#paint0_linear_162_3526)"/>
<path d="M39.2109 12.3213C39.2109 11.4372 39.0902 10.8584 38.8486 10.585C38.5479 10.2432 38.0898 10.0723 37.4746 10.0723C37.069 10.0723 36.7568 10.0768 36.5381 10.0859V14.4199C36.7432 14.4473 37.0234 14.4609 37.3789 14.4609C37.9622 14.4609 38.4248 14.3242 38.7666 14.0508C38.9535 13.8958 39.0788 13.6589 39.1426 13.3398C39.1882 13.1211 39.2109 12.7816 39.2109 12.3213ZM40.3799 12.0205C40.3844 12.1117 40.3867 12.2005 40.3867 12.2871C40.3867 13.2077 40.1976 13.8913 39.8193 14.3379C39.359 14.8802 38.5387 15.1514 37.3584 15.1514C37.0758 15.1514 36.8024 15.14 36.5381 15.1172V19H35.4785V9.42969H37.7686C38.639 9.42969 39.2747 9.62793 39.6758 10.0244C40.0996 10.4346 40.3343 11.0999 40.3799 12.0205ZM45.0352 15.2471C45.0169 14.4632 44.9235 13.8936 44.7549 13.5381C44.5316 13.0687 44.1442 12.834 43.5928 12.834C43.1598 12.834 42.8271 12.9753 42.5947 13.2578C42.2803 13.6406 42.1071 14.3037 42.0752 15.2471H45.0352ZM42.0752 15.9307C42.0752 16.8786 42.2188 17.512 42.5059 17.8311C42.6973 18.1182 43.0163 18.2891 43.4629 18.3438C43.554 18.3529 43.6497 18.3574 43.75 18.3574C44.0052 18.3574 44.2946 18.3255 44.6182 18.2617C45.0055 18.1797 45.3018 18.0863 45.5068 17.9814L45.876 18.5283C45.1787 18.8883 44.4587 19.0684 43.7158 19.0684C43.5837 19.0684 43.4538 19.0638 43.3262 19.0547C42.5286 18.9863 41.959 18.6833 41.6172 18.1455C41.2344 17.6533 41.043 16.8216 41.043 15.6504C41.043 14.4518 41.3073 13.5335 41.8359 12.8955C42.2689 12.3623 42.8704 12.0957 43.6406 12.0957H43.7705C44.6227 12.1276 45.2197 12.5355 45.5615 13.3193C45.7848 13.8252 45.8965 14.4792 45.8965 15.2812C45.8965 15.4863 45.8896 15.7028 45.876 15.9307H42.0752ZM51.1465 12.1641V12.8135H48.2617V19H47.2363V12.1641H51.1465ZM57.1621 12.1641V19H56.1367V13.9961L56.1641 13.3125C56.1276 13.4993 56.0433 13.7272 55.9111 13.9961L53.2451 19H52.2402V12.1641H53.2656V17.0996L53.2383 17.7832C53.2702 17.5964 53.3545 17.3685 53.4912 17.0996C53.915 16.3112 54.8037 14.7002 56.1572 12.2666L57.1621 12.1641ZM63.6768 18.2344C62.943 18.7904 62.0361 19.0684 60.9561 19.0684C60.1585 19.0684 59.5889 18.7949 59.2471 18.248C58.9053 17.7103 58.7344 16.8216 58.7344 15.582C58.7344 14.3561 58.9076 13.4788 59.2539 12.9502C59.5957 12.4307 60.1494 12.1481 60.915 12.1025C60.9788 12.098 61.0449 12.0957 61.1133 12.0957H61.2568C61.7809 12.0957 62.2275 12.1413 62.5967 12.2324C62.984 12.3418 63.262 12.4626 63.4307 12.5947L62.9863 13.1553C62.5352 12.9365 61.9678 12.8271 61.2842 12.8271H61.0859C60.6484 12.8271 60.334 12.9753 60.1426 13.2715C59.8874 13.6725 59.7598 14.4199 59.7598 15.5137C59.7598 16.612 59.8874 17.3708 60.1426 17.79C60.3431 18.1136 60.6576 18.2754 61.0859 18.2754C61.8926 18.2754 62.6081 18.0954 63.2324 17.7354L63.6768 18.2344ZM69.6787 12.1641V12.8135H67.5322V19H66.5137V12.8135H64.3672V12.1641H69.6787ZM73.9648 18.3848C74.4115 18.3392 74.7145 18.1706 74.874 17.8789C75.111 17.487 75.2295 16.7464 75.2295 15.6572C75.2295 14.5635 75.0996 13.8138 74.8398 13.4082C74.653 13.1029 74.3408 12.9411 73.9033 12.9229H73.8076C73.1286 12.9229 72.5111 13.2008 71.9551 13.7568V17.8789C72.1556 17.9974 72.4404 18.1136 72.8096 18.2275C73.1787 18.3415 73.4977 18.3984 73.7666 18.3984C73.835 18.3984 73.901 18.3939 73.9648 18.3848ZM74.1426 12.0957C74.9219 12.0957 75.471 12.3691 75.79 12.916C76.0999 13.4401 76.2549 14.3311 76.2549 15.5889C76.2549 16.7829 76.0635 17.6602 75.6807 18.2207C75.3252 18.7448 74.776 19.0251 74.0332 19.0615C73.9421 19.0661 73.8509 19.0684 73.7598 19.0684C73.1081 19.0684 72.5065 18.9544 71.9551 18.7266V23.1016H70.9297V13.1895C70.9297 12.8978 70.9115 12.5993 70.875 12.2939L71.7842 12.1641C71.8389 12.2871 71.8753 12.474 71.8936 12.7246C71.8981 12.7884 71.9049 12.8613 71.9141 12.9434C72.0599 12.7702 72.2832 12.6061 72.584 12.4512C73.0534 12.2142 73.5729 12.0957 74.1426 12.0957ZM81.1768 15.6982C80.3337 15.6982 79.7594 15.721 79.4541 15.7666C79.0986 15.8167 78.8662 15.9284 78.7568 16.1016C78.6794 16.2246 78.6292 16.4365 78.6064 16.7373C78.6019 16.8376 78.5996 16.9333 78.5996 17.0244C78.5996 17.3024 78.6247 17.5508 78.6748 17.7695C78.7705 18.166 78.9961 18.3643 79.3516 18.3643C79.5202 18.3643 79.7161 18.321 79.9395 18.2344C80.0488 18.1888 80.459 17.9997 81.1699 17.667L81.1768 15.6982ZM82.2021 17.9199C82.2021 18.2298 82.2272 18.5488 82.2773 18.877L81.3818 19C81.3226 18.918 81.2725 18.7516 81.2314 18.501C81.2223 18.4417 81.2178 18.362 81.2178 18.2617C80.5934 18.5488 80.1058 18.763 79.7549 18.9043C79.4587 19.0137 79.1761 19.0684 78.9072 19.0684C78.7842 19.0684 78.6657 19.057 78.5518 19.0342C78.1507 18.9567 77.891 18.7493 77.7725 18.4121C77.6494 18.0794 77.5879 17.5212 77.5879 16.7373C77.5879 16.4274 77.6357 16.1517 77.7314 15.9102C77.8818 15.5273 78.1348 15.2881 78.4902 15.1924C78.9414 15.0693 79.8369 15.0078 81.1768 15.0078V13.7568C81.1768 13.4196 81.1562 13.2054 81.1152 13.1143C81.0742 13.014 80.9876 12.9411 80.8555 12.8955C80.737 12.859 80.5684 12.8408 80.3496 12.8408C80.2585 12.8408 80.1582 12.8431 80.0488 12.8477C79.5293 12.8704 78.8662 12.973 78.0596 13.1553L77.8203 12.458C78.8958 12.2165 79.8369 12.0957 80.6436 12.0957C81.318 12.0957 81.7669 12.2529 81.9902 12.5674C82.1315 12.7633 82.2021 13.1165 82.2021 13.627V17.9199ZM88.833 12.1641V18.3848H89.8584V20.4355H89.2021L88.8877 19H83.8223V12.1641H84.8477V18.3848H87.8076V12.1641H88.833ZM95.9492 12.1641V19H94.9238V13.9961L94.9512 13.3125C94.9147 13.4993 94.8304 13.7272 94.6982 13.9961L92.0322 19H91.0273V12.1641H92.0527V17.0996L92.0254 17.7832C92.0573 17.5964 92.1416 17.3685 92.2783 17.0996C92.7021 16.3112 93.5908 14.7002 94.9443 12.2666L95.9492 12.1641ZM101.172 12.8203H99.9482C99.4652 12.8203 99.1302 12.916 98.9434 13.1074C98.7611 13.2943 98.6699 13.6383 98.6699 14.1396C98.6699 14.6182 98.7861 14.9714 99.0186 15.1992C99.2601 15.4362 99.6406 15.5547 100.16 15.5547H101.172V12.8203ZM102.197 12.1641V19H101.172V16.1562H100.365C99.8548 16.1562 99.4652 16.2884 99.1963 16.5527C98.859 16.8945 98.6699 17.569 98.6289 18.5762C98.6198 18.763 98.5811 18.9043 98.5127 19H97.5215C97.5853 18.877 97.6195 18.7425 97.624 18.5967C97.6468 17.8584 97.7266 17.2979 97.8633 16.915C97.9954 16.5459 98.2096 16.2656 98.5059 16.0742C98.6927 15.9557 98.9229 15.876 99.1963 15.835C98.6859 15.7712 98.3167 15.6276 98.0889 15.4043C97.7926 15.1172 97.6445 14.6865 97.6445 14.1123C97.6445 13.4606 97.8086 12.9889 98.1367 12.6973C98.5514 12.3418 99.1393 12.1641 99.9004 12.1641H102.197Z" fill="white"/>
</g>
<defs>
<filter id="filter0_d_162_3526" x="0" y="0" width="138" height="38" filterUnits="userSpaceOnUse" color-interpolation-filters="sRGB">
<feFlood flood-opacity="0" result="BackgroundImageFix"/>
<feColorMatrix in="SourceAlpha" type="matrix" values="0 0 0 0 0 0 0 0 0 0 0 0 0 0 0 0 0 0 127 0" result="hardAlpha"/>
<feOffset dy="4"/>
<feGaussianBlur stdDeviation="2"/>
<feComposite in2="hardAlpha" operator="out"/>
<feColorMatrix type="matrix" values="0 0 0 0 0 0 0 0 0 0 0 0 0 0 0 0 0 0 0.25 0"/>
<feBlend mode="normal" in2="BackgroundImageFix" result="effect1_dropShadow_162_3526"/>
<feBlend mode="normal" in="SourceGraphic" in2="effect1_dropShadow_162_3526" result="shape"/>
</filter>
<linearGradient id="paint0_linear_162_3526" x1="59.0126" y1="20.6117" x2="64.1656" y2="-19.5255" gradientUnits="userSpaceOnUse">
<stop stop-color="#713E8B"/>
<stop offset="0.54" stop-color="#D4242F"/>
<stop offset="1" stop-color="#713E8B"/>
</linearGradient>
</defs>
</svg>
