<svg width="130" height="30" viewBox="0 0 130 30" fill="none" xmlns="http://www.w3.org/2000/svg">
<rect x="0.5" y="0.5" width="129" height="29" rx="14.5" fill="white" stroke="#713E8B"/>
<path d="M56.3135 17.8926C56.5824 17.6693 56.7168 17.193 56.7168 16.4639C56.7168 16.391 56.7145 16.3135 56.71 16.2314C56.6689 15.5524 56.4502 15.0921 56.0537 14.8506C55.7256 14.6455 55.238 14.5202 54.5908 14.4746C54.3675 14.4518 53.971 14.4404 53.4014 14.4404V18.2344C53.8662 18.2708 54.3151 18.2891 54.748 18.2891C54.8939 18.2891 55.0283 18.2868 55.1514 18.2822C55.6436 18.2503 56.0309 18.1204 56.3135 17.8926ZM53.4014 10.0723V13.791C54.0576 13.791 54.4928 13.7865 54.707 13.7773C55.3451 13.7454 55.8327 13.5723 56.1699 13.2578C56.416 13.0254 56.5505 12.6266 56.5732 12.0615V11.9111C56.5732 11.264 56.4639 10.8037 56.2451 10.5303C55.999 10.2249 55.5911 10.0723 55.0215 10.0723H53.4014ZM55.3975 14.126C56.0264 14.126 56.5527 14.2832 56.9766 14.5977C57.528 15.0033 57.8037 15.6071 57.8037 16.4092C57.8037 17.307 57.6146 17.945 57.2363 18.3232C56.7897 18.7744 56.0993 19 55.165 19H52.3418V9.42969H55.1582C56.0241 9.42969 56.6576 9.63249 57.0586 10.0381C57.4414 10.4209 57.6328 11.027 57.6328 11.8564V12.0068C57.6009 12.859 57.2933 13.4629 56.71 13.8184C56.3864 14.0098 55.9489 14.1123 55.3975 14.126ZM63.9697 12.1641L62.1582 15.582L64.0039 19H62.8213L61.5088 16.1357L60.1963 19H59.0137L60.8936 15.582L59.0479 12.1641H60.2305L61.5088 15.0488L62.7871 12.1641H63.9697ZM68.4062 18.3711C68.8392 18.2526 69.1377 18.0544 69.3018 17.7764C69.5205 17.3981 69.6299 16.7008 69.6299 15.6846V15.5615C69.6162 14.4814 69.4909 13.7477 69.2539 13.3604C69.0853 13.0869 68.7822 12.8955 68.3447 12.7861C68.2445 12.7725 68.1123 12.7656 67.9482 12.7656H67.8252C67.611 12.7656 67.4401 12.777 67.3125 12.7998C66.875 12.9183 66.5765 13.1143 66.417 13.3877C66.1982 13.7705 66.0889 14.4678 66.0889 15.4795V15.6025C66.1025 16.6872 66.2279 17.4232 66.4648 17.8105C66.6289 18.0794 66.9297 18.2686 67.3672 18.3779C67.4948 18.3962 67.668 18.4053 67.8867 18.4053C68.1055 18.4007 68.2786 18.3893 68.4062 18.3711ZM68.5156 12.1162C69.3223 12.18 69.8874 12.4557 70.2109 12.9434C70.5482 13.4447 70.7168 14.3014 70.7168 15.5137C70.7168 16.735 70.5482 17.6146 70.2109 18.1523C69.8737 18.6855 69.3086 18.984 68.5156 19.0479C68.3698 19.0615 68.151 19.0684 67.8594 19.0684C67.554 19.0684 67.3353 19.0615 67.2031 19.0479C66.3965 18.984 65.8314 18.7083 65.5078 18.2207C65.1706 17.7194 65.002 16.8626 65.002 15.6504C65.002 14.429 65.1706 13.5495 65.5078 13.0117C65.8405 12.4785 66.4056 12.18 67.2031 12.1162C67.349 12.1025 67.5677 12.0957 67.8594 12.0957C68.1602 12.0957 68.3789 12.1025 68.5156 12.1162ZM75.6797 18.3848V12.7793H73.8613C73.5332 15.4544 73.1117 17.3229 72.5967 18.3848H75.6797ZM77.5801 18.3848V20.4355H76.9238L76.6094 19H72.0566L71.7422 20.4355H71.0859V18.3848H71.7764C72.305 17.3776 72.7471 15.304 73.1025 12.1641H76.6709V18.3848H77.5801Z" fill="#713E8B"/>
</svg>
