<svg width="60" height="61" viewBox="0 0 60 61" fill="none" xmlns="http://www.w3.org/2000/svg">
<g clip-path="url(#clip0_993_10470)">
<path d="M58.7638 16.1047C58.0721 13.5344 56.0456 11.5083 53.4757 10.8162C48.7805 9.53125 29.9994 9.53125 29.9994 9.53125C29.9994 9.53125 11.2188 9.53125 6.52356 10.7672C4.00313 11.4589 1.92718 13.5348 1.2355 16.1047C0 20.7995 0 30.5361 0 30.5361C0 30.5361 0 40.3217 1.2355 44.9675C1.92763 47.5374 3.95369 49.5639 6.52402 50.256C11.2683 51.541 29.9999 51.541 29.9999 51.541C29.9999 51.541 48.7805 51.541 53.4757 50.305C56.0461 49.6133 58.0721 47.5868 58.7642 45.0169C59.9997 40.3217 59.9997 30.5855 59.9997 30.5855C59.9997 30.5855 60.0492 20.7995 58.7638 16.1047Z" fill="#FF0000"/>
<path d="M24.0198 39.5321L39.6373 30.5371L24.0198 21.542V39.5321Z" fill="white"/>
</g>
<defs>
<clipPath id="clip0_993_10470">
<rect width="60" height="60" fill="white" transform="translate(0 0.507812)"/>
</clipPath>
</defs>
</svg>
