<svg width="40" height="40" viewBox="0 0 40 40" fill="none" xmlns="http://www.w3.org/2000/svg">
<circle cx="20" cy="20" r="20" fill="white"/>
<path d="M29.9492 16.0027C29.9023 14.9179 29.7304 14.172 29.4842 13.5258C29.2302 12.8398 28.8394 12.2256 28.3274 11.7151C27.8272 11.1965 27.2215 10.7936 26.5572 10.5384C25.9203 10.2871 25.1934 10.1117 24.1306 10.0639C23.0597 10.012 22.7198 10 20.0039 10C17.288 10 16.948 10.012 15.8812 10.0598C14.8183 10.1077 14.0876 10.2832 13.4546 10.5344C12.7823 10.7936 12.1806 11.1925 11.6803 11.7151C11.1723 12.2256 10.7777 12.8438 10.5275 13.5219C10.2813 14.172 10.1094 14.9138 10.0626 15.9986C10.0118 17.0916 10 17.4386 10 20.2106C10 22.9826 10.0118 23.3295 10.0586 24.4184C10.1055 25.5033 10.2775 26.2491 10.5237 26.8953C10.7777 27.5813 11.1723 28.1955 11.6803 28.7061C12.1806 29.2246 12.7863 29.6275 13.4506 29.8827C14.0876 30.134 14.8143 30.3094 15.8774 30.3572C16.9441 30.4052 17.2842 30.4171 20.0001 30.4171C22.716 30.4171 23.0559 30.4052 24.1228 30.3572C25.1857 30.3094 25.9164 30.134 26.5494 29.8827C27.8938 29.3522 28.9567 28.2673 29.4764 26.8953C29.7225 26.2452 29.8945 25.5033 29.9414 24.4184C29.9882 23.3295 30 22.9826 30 20.2106C30 17.4386 29.996 17.0916 29.9492 16.0027ZM28.1478 24.3387C28.1047 25.3358 27.9406 25.8742 27.8039 26.2332C27.4677 27.1227 26.7761 27.8286 25.9046 28.1717C25.5529 28.3113 25.0216 28.4787 24.0484 28.5225C22.9933 28.5705 22.6769 28.5824 20.0079 28.5824C17.3388 28.5824 17.0184 28.5705 15.9671 28.5225C14.9902 28.4787 14.4626 28.3113 14.1109 28.1717C13.6773 28.0081 13.2825 27.7488 12.9621 27.4098C12.63 27.0787 12.376 26.6799 12.2157 26.2372C12.0789 25.8783 11.9148 25.3358 11.8719 24.3427C11.8249 23.2658 11.8133 22.9427 11.8133 20.2185C11.8133 17.4943 11.8249 17.1673 11.8719 16.0945C11.9148 15.0973 12.0789 14.5589 12.2157 14.1999C12.376 13.7571 12.63 13.3544 12.9661 13.0272C13.2903 12.6882 13.6811 12.4289 14.1149 12.2655C14.4666 12.1259 14.9981 11.9584 15.9711 11.9145C17.0262 11.8666 17.3428 11.8547 20.0117 11.8547C22.6847 11.8547 23.0011 11.8666 24.0524 11.9145C25.0293 11.9584 25.5569 12.1259 25.9086 12.2655C26.3423 12.4289 26.737 12.6882 27.0574 13.0272C27.3896 13.3583 27.6436 13.7571 27.8039 14.1999C27.9406 14.5589 28.1047 15.1012 28.1478 16.0945C28.1946 17.1714 28.2064 17.4943 28.2064 20.2185C28.2064 22.9427 28.1946 23.2618 28.1478 24.3387Z" fill="url(#paint0_linear_104_98)"/>
<path d="M20.004 14.9658C17.167 14.9658 14.8652 17.315 14.8652 20.2107C14.8652 23.1064 17.167 25.4556 20.004 25.4556C22.8411 25.4556 25.1427 23.1064 25.1427 20.2107C25.1427 17.315 22.8411 14.9658 20.004 14.9658ZM20.004 23.6129C18.1635 23.6129 16.6706 22.0894 16.6706 20.2107C16.6706 18.3321 18.1635 16.8085 20.004 16.8085C21.8446 16.8085 23.3373 18.3321 23.3373 20.2107C23.3373 22.0894 21.8446 23.6129 20.004 23.6129Z" fill="url(#paint1_linear_104_98)"/>
<path d="M26.5455 14.7586C26.5455 15.4348 26.0084 15.9831 25.3457 15.9831C24.6832 15.9831 24.1461 15.4348 24.1461 14.7586C24.1461 14.0823 24.6832 13.5342 25.3457 13.5342C26.0084 13.5342 26.5455 14.0823 26.5455 14.7586Z" fill="url(#paint2_linear_104_98)"/>
<defs>
<linearGradient id="paint0_linear_104_98" x1="18.4635" y1="24.0277" x2="30.387" y2="3.03317" gradientUnits="userSpaceOnUse">
<stop stop-color="#713E8B"/>
<stop offset="0.54" stop-color="#D4242F"/>
<stop offset="1" stop-color="#713E8B"/>
</linearGradient>
<linearGradient id="paint1_linear_104_98" x1="19.2144" y1="22.1729" x2="25.3398" y2="11.3854" gradientUnits="userSpaceOnUse">
<stop stop-color="#713E8B"/>
<stop offset="0.54" stop-color="#D4242F"/>
<stop offset="1" stop-color="#713E8B"/>
</linearGradient>
<linearGradient id="paint2_linear_104_98" x1="25.1615" y1="15.2167" x2="26.5914" y2="12.6982" gradientUnits="userSpaceOnUse">
<stop stop-color="#713E8B"/>
<stop offset="0.54" stop-color="#D4242F"/>
<stop offset="1" stop-color="#713E8B"/>
</linearGradient>
</defs>
</svg>
