<svg width="40" height="40" viewBox="0 0 40 40" fill="none" xmlns="http://www.w3.org/2000/svg">
<circle cx="20" cy="20" r="20" fill="white"/>
<path d="M30 13.9622C29.2639 14.2952 28.4741 14.521 27.6442 14.6218C28.4915 14.1038 29.1402 13.2822 29.4476 12.3062C28.6527 12.7859 27.7754 13.1342 26.8406 13.323C26.092 12.5078 25.0271 12 23.8461 12C21.5803 12 19.7431 13.8755 19.7431 16.1873C19.7431 16.5152 19.7794 16.8354 19.8494 17.1416C16.44 16.9668 13.4168 15.2993 11.3935 12.7655C11.0398 13.383 10.8386 14.1025 10.8386 14.8706C10.8386 16.3238 11.5634 17.606 12.6632 18.3562C11.9909 18.3332 11.3585 18.1444 10.8048 17.8305V17.8828C10.8048 19.9114 12.2196 21.6044 14.0955 21.9897C13.7518 22.0842 13.3894 22.1365 13.0144 22.1365C12.7495 22.1365 12.4933 22.1097 12.2421 22.0586C12.7644 23.7236 14.2792 24.9344 16.0739 24.9675C14.6704 26.0903 12.9007 26.7575 10.9786 26.7575C10.6474 26.7575 10.3212 26.7371 10 26.7001C11.8159 27.8905 13.9718 28.5845 16.2888 28.5845C23.8362 28.5845 27.9617 22.2028 27.9617 16.6683L27.9479 16.1261C28.754 15.5391 29.4513 14.8017 30 13.9622Z" fill="url(#paint0_linear_104_79)"/>
<defs>
<linearGradient id="paint0_linear_104_79" x1="18.4635" y1="23.3945" x2="27.0426" y2="4.79802" gradientUnits="userSpaceOnUse">
<stop stop-color="#713E8B"/>
<stop offset="0.54" stop-color="#D4242F"/>
<stop offset="1" stop-color="#713E8B"/>
</linearGradient>
</defs>
</svg>
