<svg width="40" height="40" viewBox="0 0 40 40" fill="none" xmlns="http://www.w3.org/2000/svg">
<circle cx="20" cy="20" r="20" fill="white"/>
<path d="M28.5484 20.337C28.3173 19.4204 27.4962 18.7442 26.5079 18.6436C24.168 18.4049 21.7985 18.4038 19.4406 18.4049C17.0818 18.4038 14.7128 18.4049 12.3722 18.6436C11.3843 18.7445 10.5637 19.4206 10.3329 20.337C10.0039 21.6423 10 23.0671 10 24.4111C10 25.7551 10 27.1798 10.3289 28.485C10.5598 29.4014 11.3804 30.0776 12.3687 30.1785C14.7089 30.4174 17.0778 30.4183 19.4365 30.4174C21.7953 30.4185 24.1638 30.4174 26.5047 30.1785C27.4925 30.0776 28.3136 29.4014 28.5445 28.485C28.8732 27.1798 28.8749 25.7551 28.8749 24.4111C28.8746 23.0669 28.8771 21.6423 28.5484 20.337ZM15.3838 21.3487H14.0177V27.9771H12.7487V21.3487H11.4075V20.263H15.3838V21.3487ZM18.8303 27.9773H17.6889V27.3502C17.2354 27.8248 16.8049 28.0563 16.3854 28.0563C16.0178 28.0563 15.7648 27.9203 15.6506 27.6292C15.5884 27.4553 15.55 27.1802 15.55 26.7745V22.2293H16.6904V26.4613C16.6904 26.7053 16.6904 26.8321 16.7008 26.8663C16.7282 27.028 16.8147 27.11 16.9676 27.11C17.1964 27.11 17.4356 26.949 17.6886 26.6222V22.2293H18.8301L18.8303 27.9773ZM23.1636 26.2521C23.1636 26.7837 23.1244 27.1667 23.0482 27.4103C22.8958 27.8379 22.5908 28.0563 22.1371 28.0563C21.7312 28.0563 21.3396 27.8505 20.9582 27.4204V27.9775H19.8177V20.263H20.9582V22.7823C21.3266 22.3682 21.7176 22.1588 22.1371 22.1588C22.5908 22.1588 22.8961 22.377 23.0482 22.8073C23.1249 23.0385 23.1636 23.4186 23.1636 23.9628V26.2521ZM27.4683 25.2931H25.1871V26.312C25.1871 26.844 25.3778 27.1097 25.7698 27.1097C26.0507 27.1097 26.2142 26.9703 26.2793 26.692C26.2899 26.6355 26.3049 26.4041 26.3049 25.9864H27.4686V26.1384C27.4686 26.4741 27.4545 26.7053 27.4442 26.8094C27.406 27.0399 27.3162 27.2491 27.1779 27.4333C26.862 27.8507 26.394 28.0565 25.7982 28.0565C25.2015 28.0565 24.7472 27.8604 24.4175 27.468C24.1756 27.1802 24.0514 26.7272 24.0514 26.1163V24.1031C24.0514 23.4886 24.1616 23.0392 24.404 22.7488C24.7334 22.3554 25.1874 22.1595 25.7701 22.1595C26.3424 22.1595 26.7961 22.3554 27.1157 22.7488C27.3547 23.0392 27.4688 23.4886 27.4688 24.1031V25.2931H27.4683Z" fill="url(#paint0_linear_104_88)"/>
<path d="M25.7597 23.0962C25.3785 23.0962 25.1874 23.3621 25.1874 23.8935V24.4253H26.3278V23.8935C26.3276 23.3621 26.137 23.0962 25.7597 23.0962Z" fill="url(#paint1_linear_104_88)"/>
<path d="M21.5268 23.0962C21.3389 23.0962 21.1485 23.1773 20.9579 23.3495V26.8528C21.1483 27.0271 21.3389 27.1095 21.5268 27.1095C21.8557 27.1095 22.0229 26.8528 22.0229 26.3338V23.8804C22.0229 23.3621 21.8557 23.0962 21.5268 23.0962Z" fill="url(#paint2_linear_104_88)"/>
<path d="M22.164 17.8745C22.5845 17.8745 23.0219 17.6413 23.4808 17.1612V17.7948H24.6336V11.9858H23.4808V16.4256C23.2253 16.7552 22.9832 16.9183 22.7526 16.9183C22.5983 16.9183 22.5075 16.835 22.4824 16.6717C22.4683 16.6373 22.4683 16.5091 22.4683 16.2626V11.9858H21.3192V16.5792C21.3192 16.9894 21.3577 17.267 21.4213 17.4429C21.5372 17.7372 21.7929 17.8745 22.164 17.8745Z" fill="url(#paint3_linear_104_88)"/>
<path d="M14.1387 14.6379V17.7949H15.417V14.6379L16.9547 10H15.6621L14.7899 13.0611L13.8825 10H12.5374C12.8069 10.7225 13.0872 11.4487 13.3568 12.1719C13.7668 13.259 14.0228 14.0786 14.1387 14.6379Z" fill="url(#paint4_linear_104_88)"/>
<path d="M18.6681 17.8745C19.2456 17.8745 19.6944 17.6761 20.0127 17.2798C20.2546 16.9891 20.3705 16.5311 20.3705 15.9138V13.8796C20.3705 13.2586 20.2549 12.8047 20.0127 12.5113C19.6944 12.1139 19.2458 11.9155 18.6681 11.9155C18.0935 11.9155 17.645 12.1139 17.3259 12.5113C17.081 12.8047 16.9651 13.2586 16.9651 13.8796V15.9138C16.9651 16.5311 17.081 16.9891 17.3259 17.2798C17.6447 17.6761 18.0935 17.8745 18.6681 17.8745ZM18.118 13.6686C18.118 13.1312 18.2965 12.8632 18.6681 12.8632C19.0397 12.8632 19.2177 13.131 19.2177 13.6686V16.1121C19.2177 16.6496 19.0397 16.9184 18.6681 16.9184C18.2965 16.9184 18.118 16.6496 18.118 16.1121V13.6686Z" fill="url(#paint5_linear_104_88)"/>
<defs>
<linearGradient id="paint0_linear_104_88" x1="17.9874" y1="26.6582" x2="23.1274" y2="12.1414" gradientUnits="userSpaceOnUse">
<stop stop-color="#713E8B"/>
<stop offset="0.54" stop-color="#D4242F"/>
<stop offset="1" stop-color="#713E8B"/>
</linearGradient>
<linearGradient id="paint1_linear_104_88" x1="25.67" y1="24.0094" x2="26.4951" y2="22.7368" gradientUnits="userSpaceOnUse">
<stop stop-color="#713E8B"/>
<stop offset="0.54" stop-color="#D4242F"/>
<stop offset="1" stop-color="#713E8B"/>
</linearGradient>
<linearGradient id="paint2_linear_104_88" x1="21.4086" y1="25.8536" x2="23.5294" y2="24.8419" gradientUnits="userSpaceOnUse">
<stop stop-color="#713E8B"/>
<stop offset="0.54" stop-color="#D4242F"/>
<stop offset="1" stop-color="#713E8B"/>
</linearGradient>
<linearGradient id="paint3_linear_104_88" x1="22.7218" y1="16.0317" x2="26.7257" y2="11.981" gradientUnits="userSpaceOnUse">
<stop stop-color="#713E8B"/>
<stop offset="0.54" stop-color="#D4242F"/>
<stop offset="1" stop-color="#713E8B"/>
</linearGradient>
<linearGradient id="paint4_linear_104_88" x1="14.4067" y1="15.3556" x2="19.7062" y2="9.95734" gradientUnits="userSpaceOnUse">
<stop stop-color="#713E8B"/>
<stop offset="0.54" stop-color="#D4242F"/>
<stop offset="1" stop-color="#713E8B"/>
</linearGradient>
<linearGradient id="paint5_linear_104_88" x1="18.4062" y1="16.0097" x2="22.4567" y2="11.8489" gradientUnits="userSpaceOnUse">
<stop stop-color="#713E8B"/>
<stop offset="0.54" stop-color="#D4242F"/>
<stop offset="1" stop-color="#713E8B"/>
</linearGradient>
</defs>
</svg>
