<svg width="40" height="40" viewBox="0 0 40 40" fill="none" xmlns="http://www.w3.org/2000/svg">
<circle cx="20" cy="20" r="20" fill="white"/>
<path d="M29.8939 25.5202C29.8697 25.4669 29.8471 25.4228 29.8262 25.3873C29.4792 24.7494 28.8161 23.9663 27.8372 23.0379L27.8166 23.0166L27.8062 23.0062L27.7957 22.9955H27.7852C27.341 22.5632 27.0597 22.2725 26.9419 22.1237C26.7263 21.8402 26.678 21.5532 26.7959 21.2625C26.8791 21.0428 27.1917 20.5789 27.733 19.8701C28.0178 19.4944 28.2433 19.1933 28.4098 18.9665C29.6109 17.3364 30.1316 16.2948 29.9719 15.8412L29.9098 15.7352C29.8681 15.6714 29.7606 15.613 29.5872 15.5597C29.4134 15.5066 29.1914 15.4978 28.9206 15.5332L25.9216 15.5544C25.8731 15.5368 25.8037 15.5385 25.7133 15.5597C25.623 15.581 25.5779 15.5917 25.5779 15.5917L25.5257 15.6184L25.4843 15.6503C25.4495 15.6715 25.4114 15.7087 25.3697 15.7619C25.3282 15.8148 25.2935 15.877 25.2658 15.9479C24.9393 16.8054 24.5681 17.6027 24.1515 18.3397C23.8946 18.7791 23.6587 19.16 23.4432 19.4825C23.2281 19.8048 23.0476 20.0423 22.9019 20.1946C22.756 20.347 22.6244 20.4691 22.5061 20.5613C22.388 20.6536 22.2979 20.6925 22.2355 20.6783C22.173 20.664 22.1141 20.6499 22.0583 20.6357C21.9612 20.5719 21.883 20.4851 21.8241 20.3753C21.765 20.2654 21.7252 20.1272 21.7043 19.9606C21.6836 19.794 21.6714 19.6506 21.6679 19.5301C21.6646 19.4097 21.6661 19.2395 21.6732 19.0198C21.6804 18.8 21.6836 18.6513 21.6836 18.5733C21.6836 18.304 21.6888 18.0117 21.6991 17.6963C21.7096 17.3809 21.7181 17.1311 21.7252 16.947C21.7323 16.7627 21.7356 16.5678 21.7356 16.3622C21.7356 16.1567 21.7233 15.9955 21.6991 15.8785C21.6752 15.7617 21.6384 15.6483 21.59 15.5383C21.5413 15.4285 21.4701 15.3435 21.3766 15.2832C21.2829 15.223 21.1664 15.1752 21.0277 15.1396C20.6598 15.0546 20.1912 15.0087 19.6218 15.0015C18.3307 14.9874 17.501 15.0725 17.1331 15.2567C16.9873 15.3346 16.8554 15.441 16.7374 15.5755C16.6125 15.7315 16.595 15.8166 16.6853 15.8306C17.1018 15.8943 17.3968 16.0467 17.5703 16.2877L17.6329 16.4153C17.6815 16.5074 17.7301 16.6705 17.7787 16.9044C17.8273 17.1382 17.8586 17.3968 17.8724 17.6802C17.907 18.1976 17.907 18.6405 17.8724 19.009C17.8376 19.3776 17.8048 19.6646 17.7735 19.8701C17.7422 20.0756 17.6953 20.2422 17.6329 20.3697C17.5703 20.4972 17.5287 20.5752 17.5079 20.6035C17.487 20.6318 17.4697 20.6496 17.4559 20.6566C17.3656 20.6919 17.2718 20.7099 17.1747 20.7099C17.0774 20.7099 16.9595 20.6603 16.8206 20.561C16.6819 20.4617 16.5378 20.3254 16.3885 20.1517C16.2393 19.978 16.0709 19.7353 15.8834 19.4235C15.696 19.1117 15.5016 18.7432 15.3003 18.318L15.1338 18.0097C15.0296 17.8113 14.8874 17.5224 14.7069 17.1434C14.5263 16.7641 14.3666 16.3973 14.2278 16.043C14.1724 15.8941 14.089 15.7808 13.978 15.7029L13.9259 15.6709C13.8912 15.6426 13.8356 15.6125 13.7593 15.5805C13.6829 15.5485 13.6031 15.5256 13.5198 15.5115L10.6666 15.5326C10.375 15.5326 10.1772 15.6001 10.073 15.7347L10.0313 15.7985C10.0105 15.8339 10 15.8906 10 15.9686C10 16.0466 10.0208 16.1423 10.0625 16.2556C10.479 17.2549 10.932 18.2187 11.4214 19.1471C11.9108 20.0754 12.336 20.8233 12.6969 21.3899C13.0579 21.9569 13.4258 22.4921 13.8007 22.9951C14.1756 23.4983 14.4238 23.8208 14.5452 23.9624C14.6668 24.1044 14.7622 24.2105 14.8317 24.2813L15.092 24.5364C15.2586 24.7065 15.5033 24.9103 15.8261 25.1476C16.149 25.3851 16.5065 25.619 16.8987 25.8495C17.291 26.0796 17.7474 26.2674 18.2681 26.4127C18.7887 26.5581 19.2955 26.6164 19.7884 26.5883H20.9859C21.2288 26.5669 21.4128 26.4889 21.5379 26.3543L21.5793 26.301C21.6072 26.2587 21.6333 26.193 21.6573 26.1046C21.6817 26.016 21.6938 25.9184 21.6938 25.8123C21.6867 25.5076 21.7094 25.233 21.7613 24.9885C21.8132 24.7441 21.8724 24.5599 21.9386 24.4358C22.0047 24.3118 22.0793 24.2072 22.1624 24.1223C22.2456 24.0373 22.3049 23.9858 22.3397 23.9681C22.3743 23.9503 22.4019 23.9382 22.4227 23.9309C22.5893 23.8743 22.7854 23.9291 23.0112 24.0958C23.2369 24.2624 23.4485 24.468 23.6465 24.7124C23.8444 24.957 24.0821 25.2315 24.3597 25.5362C24.6375 25.841 24.8804 26.0675 25.0886 26.2166L25.2968 26.3441C25.4358 26.4292 25.6163 26.5072 25.8385 26.5781C26.0603 26.6489 26.2546 26.6666 26.4215 26.6312L29.0872 26.5887C29.3508 26.5887 29.556 26.5442 29.7015 26.4558C29.8473 26.3672 29.9339 26.2696 29.9619 26.1634C29.9897 26.0572 29.9912 25.9366 29.9672 25.8018C29.9425 25.6674 29.9181 25.5734 29.8939 25.5202Z" fill="url(#paint0_linear_104_84)"/>
<defs>
<linearGradient id="paint0_linear_104_84" x1="18.4635" y1="23.0035" x2="23.1091" y2="8.66677" gradientUnits="userSpaceOnUse">
<stop stop-color="#713E8B"/>
<stop offset="0.54" stop-color="#D4242F"/>
<stop offset="1" stop-color="#713E8B"/>
</linearGradient>
</defs>
</svg>
