<svg width="40" height="40" viewBox="0 0 40 40" fill="none" xmlns="http://www.w3.org/2000/svg">
<circle cx="20" cy="20" r="20" fill="white"/>
<path d="M24.6234 10.0042L22.2249 10C19.5302 10 17.7888 11.9722 17.7888 15.0246V17.3413H15.3771C15.1688 17.3413 15 17.5278 15 17.7578V21.1145C15 21.3445 15.1689 21.5308 15.3771 21.5308H17.7888V30.0006C17.7888 30.2306 17.9575 30.4169 18.1659 30.4169H21.3124C21.5208 30.4169 21.6896 30.2304 21.6896 30.0006V21.5308H24.5093C24.7177 21.5308 24.8865 21.3445 24.8865 21.1145L24.8876 17.7578C24.8876 17.6474 24.8478 17.5416 24.7772 17.4635C24.7066 17.3853 24.6103 17.3413 24.5103 17.3413H21.6896V15.3774C21.6896 14.4335 21.8933 13.9543 23.0073 13.9543L24.623 13.9537C24.8312 13.9537 25 13.7672 25 13.5374V10.4206C25 10.191 24.8314 10.0047 24.6234 10.0042Z" fill="url(#paint0_linear_104_75)"/>
<defs>
<linearGradient id="paint0_linear_104_75" x1="19.2317" y1="24.0276" x2="33.0029" y2="11.9036" gradientUnits="userSpaceOnUse">
<stop stop-color="#713E8B"/>
<stop offset="0.54" stop-color="#D4242F"/>
<stop offset="1" stop-color="#713E8B"/>
</linearGradient>
</defs>
</svg>
